<?xml version="1.0" standalone="no"?>
<svg version="1.0" xmlns="http://www.w3.org/2000/svg" width="2110" height="2090" viewBox="0 0 2110 2090" preserveAspectRatio="xMidYMid meet">
<g transform="translate(0,2090) scale(0.1,-0.1)" fill="#000000" stroke="none">
<path d="M10390 19936 c-287 -61 -508 -259 -602 -541 -20 -61 -23 -89 -23 -225 0 -166 12 -222 73 -345 93 -189 275 -342 475 -399 l57 -17 -2 -1832 -3 -1832 -280 0 -280 0 -3 1530 -2 1530 -419 419 -419 418 26 62 c31 74 41 218 22 305 -38 173 -190 331 -364 377 -77 21 -212 18 -289 -6 -234 -72 -391 -329 -348 -568 49 -275 312 -468 579 -423 41 7 95 21 120 32 25 11 49 18 54 17 5 -2 180 -174 388 -383 l380 -379 -2 -1465 -3 -1466 -325 0 -325 0 0 884 0 883 53 22 c296 120 409 489 231 756 -109 163 -310 252 -500 221 -252 -40 -431 -250 -432 -506 0 -111 25 -192 89 -287 56 -82 112 -129 209 -174 l75 -35 -2 -882 -3 -882 -325 0 -325 0 -3 1140 -2 1140 -468 468 -467 467 -614 0 -614 -1 -23 57 c-85 209 -311 338 -537 306 -258 -37 -438 -246 -439 -507 -1 -194 98 -358 270 -448 164 -86 359 -79 514 20 90 56 178 170 212 276 5 16 41 17 563 17 l558 0 388 -388 387 -387 -2 -1080 -3 -1080 -225 -6 c-200 -6 -236 -9 -322 -32 -218 -59 -390 -159 -549 -317 -174 -174 -280 -372 -327 -612 l-17 -88 -1055 0 -1055 0 -457 458 -457 457 39 80 c51 103 70 177 77 300 20 366 -208 682 -572 791 -84 26 -304 26 -395 1 -413 -114 -659 -524 -560 -934 53 -221 196 -402 401 -508 112 -58 224 -85 352 -85 122 0 218 21 326 71 46 21 89 39 95 39 6 0 238 -227 516 -505 l505 -505 1117 0 1118 0 0 -330 0 -330 -878 0 -879 0 -41 84 c-155 312 -568 379 -814 132 -101 -101 -148 -215 -148 -362 0 -145 52 -267 159 -366 182 -171 452 -189 649 -44 77 57 115 105 160 198 l37 77 878 1 877 0 -2 -352 -3 -353 -1398 -3 c-1325 -2 -1398 -1 -1403 15 -39 122 -146 248 -255 302 -209 102 -438 64 -600 -101 -167 -169 -190 -438 -54 -642 109 -164 322 -252 515 -212 167 35 294 134 366 283 l39 83 1395 -3 1395 -2 3 -412 2 -413 -1868 0 -1868 0 -13 49 c-39 153 -161 322 -301 418 -136 92 -270 134 -435 136 -132 2 -224 -18 -341 -74 -374 -177 -543 -614 -385 -996 92 -223 278 -387 518 -455 110 -31 286 -31 397 0 221 63 396 206 495 403 21 42 44 99 52 128 l13 51 1868 0 1868 0 0 -255 0 -255 -1207 0 -1208 0 -412 -412 -411 -411 -54 21 c-111 45 -207 53 -317 27 -227 -54 -391 -261 -391 -494 0 -144 48 -259 151 -362 199 -200 515 -200 718 1 148 146 189 357 109 558 l-21 54 369 369 369 369 1152 0 1153 0 0 -505 0 -505 -600 0 c-563 0 -601 1 -606 17 -57 173 -222 312 -406 343 -303 52 -588 -190 -588 -500 0 -288 223 -511 510 -511 213 0 401 128 475 324 l18 47 598 0 599 0 0 -350 0 -350 -1103 0 -1102 0 -468 -468 -467 -467 0 -618 0 -617 -27 -11 c-105 -39 -205 -118 -262 -208 -129 -200 -97 -466 75 -636 97 -96 216 -145 354 -145 147 0 255 45 360 150 105 105 150 213 150 360 0 199 -110 372 -290 457 l-79 38 -1 555 0 555 387 387 388 388 1042 0 c984 0 1042 -1 1046 -17 3 -10 8 -40 12 -68 18 -138 90 -322 180 -462 103 -157 290 -325 460 -410 86 -44 221 -90 315 -107 45 -9 84 -16 86 -16 2 0 4 -496 4 -1103 l0 -1102 -459 -459 -460 -460 -78 37 c-298 140 -637 91 -869 -126 -116 -108 -190 -229 -230 -378 -24 -89 -25 -290 -1 -379 132 -494 668 -731 1122 -497 62 32 101 63 175 137 108 108 149 172 193 297 26 75 31 107 35 212 6 156 -14 256 -72 376 l-42 85 508 507 508 508 2 1170 3 1170 315 0 315 0 3 -887 2 -886 -46 -16 c-105 -35 -220 -138 -269 -241 -146 -301 12 -644 335 -730 267 -71 562 116 619 393 50 242 -81 485 -312 578 l-47 19 2 885 3 885 433 2 c238 1 440 -1 447 -4 13 -4 15 -199 15 -1471 l0 -1466 -379 -380 -379 -379 -79 25 c-102 34 -167 41 -248 28 -142 -23 -260 -92 -339 -200 -223 -303 -60 -727 309 -805 87 -18 113 -18 200 0 242 51 409 255 408 500 -1 88 -27 198 -56 233 -8 10 83 107 411 435 l422 422 0 1526 c0 1383 1 1527 16 1533 23 9 627 7 642 -2 10 -7 12 -376 10 -1815 l-3 -1808 -82 -28 c-236 -82 -419 -270 -493 -506 -28 -88 -38 -272 -21 -371 30 -171 134 -345 280 -467 57 -47 205 -121 286 -143 33 -9 105 -18 161 -21 567 -30 972 547 753 1074 -86 206 -294 391 -497 444 l-52 13 2 1815 3 1816 330 0 330 0 3 -1530 2 -1530 420 -420 420 -420 -27 -65 c-35 -87 -43 -229 -18 -315 74 -254 311 -413 561 -376 351 52 544 424 385 739 -118 234 -417 343 -650 236 l-55 -25 -378 378 -378 378 2 1475 3 1475 440 0 440 0 2 -885 3 -885 -79 -37 c-126 -60 -215 -160 -261 -294 -96 -279 73 -584 365 -659 212 -54 451 50 563 246 106 187 78 436 -66 592 -54 58 -148 122 -204 139 l-38 11 2 886 3 886 370 0 370 0 3 -1150 2 -1150 468 -468 467 -467 615 0 615 -1 37 -77 c87 -183 255 -292 451 -294 142 -2 260 45 363 144 205 197 209 521 9 723 -116 117 -285 173 -442 146 -164 -28 -309 -137 -379 -285 l-36 -76 -562 0 -561 0 -383 383 -382 382 0 1101 0 1102 85 21 c405 102 723 396 854 791 34 103 51 214 58 367 l6 143 950 0 949 0 454 -454 c250 -249 454 -458 454 -464 0 -5 -16 -43 -35 -83 -59 -126 -78 -222 -72 -369 6 -151 37 -255 113 -377 279 -448 911 -491 1255 -86 258 305 232 777 -57 1055 -240 229 -608 284 -894 132 l-65 -34 -505 505 -505 505 -1020 2 -1020 3 -3 273 -2 272 1443 0 1444 0 41 -82 c90 -182 258 -288 456 -288 142 0 259 48 360 146 206 201 204 519 -3 724 -77 76 -151 115 -262 138 -194 40 -408 -50 -518 -218 -20 -32 -43 -77 -51 -99 l-13 -41 -1449 0 -1448 0 0 350 0 350 925 0 925 0 11 -27 c29 -77 60 -124 125 -191 103 -103 216 -152 359 -152 143 0 273 57 373 165 264 284 127 742 -253 840 -227 58 -470 -56 -577 -271 l-41 -84 -924 0 -923 0 0 335 0 335 1880 -2 1881 -3 28 -81 c40 -117 92 -197 195 -299 76 -76 106 -99 186 -138 127 -62 207 -81 350 -81 142 0 224 19 345 79 416 207 559 730 306 1118 -54 82 -172 196 -255 246 -119 71 -324 120 -450 106 -210 -23 -374 -101 -508 -243 -80 -85 -133 -171 -169 -276 l-28 -81 -1881 -3 -1880 -2 0 415 0 415 900 0 c651 0 900 -3 900 -11 0 -6 14 -40 31 -75 93 -196 327 -320 536 -285 107 19 218 78 289 153 100 108 144 216 144 353 0 139 -49 256 -151 358 -205 205 -514 204 -720 -2 -47 -48 -76 -88 -102 -144 l-37 -77 -892 2 -893 3 -3 358 -2 357 1542 0 1543 0 420 420 420 420 65 -27 c98 -40 237 -44 342 -10 225 72 374 292 354 524 -26 314 -330 534 -630 457 -186 -48 -338 -203 -377 -384 -18 -85 -7 -223 24 -300 l27 -65 -378 -377 -377 -378 -1487 0 -1488 0 0 340 0 340 1138 0 1137 0 468 468 467 467 0 615 1 615 78 37 c316 150 388 570 141 818 -191 191 -499 200 -702 21 -144 -127 -206 -353 -145 -532 50 -147 134 -244 268 -307 l78 -37 1 -560 0 -560 -383 -383 -382 -382 -1086 0 -1086 0 -11 78 c-58 375 -306 710 -657 885 -79 39 -237 91 -307 101 l-48 7 0 1022 0 1022 460 460 460 460 88 -42 c104 -50 209 -73 334 -73 217 1 389 72 542 226 158 157 230 332 228 554 -3 417 -320 747 -737 767 -549 26 -952 -515 -768 -1031 14 -39 36 -91 50 -115 l25 -44 -506 -506 -506 -506 -2 -1090 -3 -1090 -415 0 -415 0 -2 1470 -3 1470 81 38 c316 149 387 568 138 816 -279 279 -754 149 -854 -234 -60 -233 61 -488 278 -585 l77 -35 -2 -1470 -3 -1470 -410 0 -410 0 -3 662 -2 661 82 40 c152 74 249 199 285 367 23 107 9 209 -47 321 -173 352 -660 381 -879 53 -101 -151 -111 -351 -26 -519 49 -97 182 -213 277 -242 l38 -11 -2 -666 -3 -666 -283 -3 -282 -2 2 1835 3 1836 83 28 c195 68 355 210 443 396 121 252 100 536 -56 770 -103 156 -263 269 -450 319 -84 23 -254 29 -335 12z m235 -331 c66 -11 157 -60 217 -119 180 -176 178 -463 -6 -633 -86 -80 -165 -114 -276 -121 -113 -6 -202 19 -286 81 -273 201 -234 613 72 758 62 30 155 49 209 43 17 -2 48 -6 70 -9z m-2006 -505 c96 -49 146 -160 120 -264 -16 -64 -84 -139 -146 -160 -238 -81 -418 207 -239 383 72 71 176 87 265 41z m6640 -315 c130 -31 245 -126 304 -252 43 -93 50 -216 17 -313 -106 -318 -498 -413 -733 -179 -243 243 -130 654 203 741 81 21 128 22 209 3z m-2654 -394 c46 -20 101 -79 121 -127 44 -105 -14 -247 -121 -295 -112 -52 -257 1 -304 111 -69 161 37 329 209 329 32 0 72 -7 95 -18z m-7217 -365 c100 -52 154 -177 120 -277 -57 -170 -271 -220 -389 -92 -45 48 -63 93 -63 158 0 99 54 180 146 218 51 20 139 17 186 -7z m3448 -809 c137 -71 174 -243 77 -356 -64 -76 -149 -102 -238 -76 -191 55 -232 289 -73 414 54 41 171 51 234 18z m2671 -441 c148 -69 176 -276 51 -381 -47 -40 -89 -55 -153 -55 -31 0 -70 6 -88 13 -109 46 -167 169 -133 280 42 140 189 205 323 143z m6501 -522 c85 -35 142 -120 142 -214 0 -130 -101 -230 -232 -230 -128 1 -227 100 -228 227 0 59 11 93 47 145 52 76 180 110 271 72z m-15376 -795 c229 -48 386 -275 349 -502 -50 -301 -372 -464 -643 -326 -58 30 -150 119 -181 177 -180 331 109 727 475 651z m11243 -1077 c266 -75 481 -269 580 -523 59 -149 55 82 55 -3436 0 -3207 0 -3229 -20 -3313 -66 -276 -274 -509 -544 -610 -139 -52 56 -50 -3409 -50 -2888 0 -3226 2 -3294 16 -104 21 -174 48 -267 103 -194 114 -331 295 -398 526 l-23 80 0 3255 0 3255 23 78 c101 350 364 583 722 640 14 3 1481 4 3260 3 l3235 -1 80 -23z m5225 -452 c52 -14 109 -67 136 -124 41 -87 28 -179 -34 -248 -146 -162 -407 -64 -405 152 2 158 147 264 303 220z m-15022 -1179 c71 -36 122 -123 122 -208 0 -132 -140 -250 -269 -227 -196 36 -264 278 -112 405 21 18 54 39 72 46 46 17 137 10 187 -16z m-1044 -982 c79 -41 116 -105 116 -203 0 -73 -19 -122 -64 -168 -110 -109 -294 -76 -368 66 -30 56 -30 146 0 202 27 52 92 109 140 123 51 14 127 6 176 -20z m14213 2 c85 -43 127 -120 121 -222 -4 -81 -36 -136 -105 -179 -154 -98 -353 13 -353 198 0 170 185 281 337 203z m-15389 -919 c264 -83 387 -388 255 -632 -43 -81 -72 -112 -146 -161 -237 -154 -555 -49 -657 218 -89 236 45 499 295 579 61 19 184 17 253 -4z m17630 4 c119 -32 229 -127 286 -246 29 -61 31 -72 31 -180 0 -109 -2 -119 -32 -183 -65 -136 -198 -236 -343 -256 -190 -26 -379 78 -463 256 -30 64 -32 74 -32 183 0 108 2 119 31 180 56 118 144 196 263 237 78 26 179 30 259 9z m-2187 -1204 c159 -82 170 -292 21 -396 -35 -25 -55 -31 -110 -34 -76 -4 -117 9 -170 53 -52 44 -76 99 -77 176 0 56 4 73 30 114 30 49 92 100 130 108 63 13 124 6 176 -21z m-14497 -954 c54 -16 131 -93 145 -144 27 -97 4 -182 -66 -245 -52 -47 -100 -62 -177 -57 -196 12 -279 256 -134 395 62 60 142 77 232 51z  m15552 -34 c122 -75 149 -237 57 -344 -110 -129 -308 -106 -385 44 -29 58 -23 176 13 228 74 108 208 139 315 72z m-13731 -138 c203 -94 168 -386 -52 -437 -40 -9 -59 -9 -104 4 -106 32 -169 113 -169 220 0 101 44 170 135 213 64 31 125 31 190 0z m13793 -1981 c181 -43 310 -179 344 -365 24 -129 -24 -272 -127 -376 -67 -68 -116 -97 -202 -119 -323 -84 -622 216 -537 540 40 155 175 287 326 320 83 18 120 18 196 0z m-15110 -1511 c86 -35 144 -122 144 -215 0 -135 -98 -232 -233 -231 -168 1 -277 174 -205 328 51 110 185 164 294 118z m5186 -976 c142 -72 170 -259 56 -370 -93 -90 -222 -92 -316 -6 -56 52 -78 108 -72 190 3 51 10 72 36 111 66 96 191 127 296 75z m4315 -11 c225 -149 60 -493 -200 -416 -112 34 -182 167 -149 283 16 57 72 123 124 148 63 29 169 22 225 -15z m3502 -812 c112 -40 178 -166 145 -278 -31 -106 -114 -170 -221 -171 -128 -1 -221 85 -232 215 -15 164 150 289 308 234z m-10266 -469 c85 -23 147 -58 205 -116 144 -145 171 -365 67 -543 -35 -59 -125 -140 -190 -171 -267 -126 -581 44 -627 340 -26 169 61 351 211 441 98 59 228 78 334 49z m2430 -577 c96 -24 169 -121 169 -224 0 -132 -98 -229 -234 -230 -57 0 -72 4 -115 33 -57 37 -80 65 -100 123 -19 53 -19 94 0 150 18 51 36 74 85 111 59 44 120 56 195 37z m4249 -3 c67 -20 110 -57 141 -121 23 -46 27 -65 23 -114 -14 -195 -238 -287 -385 -158 -88 77 -102 210 -32 306 32 45 62 67 117 87 48 17 78 17 136 0z m-2079 -32 c166 -43 296 -187 326 -363 50 -284 -224 -554 -509 -502 -299 55 -459 373 -322 641 31 61 120 151 183 185 98 54 213 68 322 39z"/>
<path d="M9409 12523 c-11 -26 -48 -135 -274 -803 -51 -151 -166 -489 -255 -750 -89 -261 -204 -599 -255 -750 -51 -151 -134 -394 -183 -540 -332 -975 -462 -1360 -462 -1366 0 -2 127 -3 283 -2 l282 3 73 220 c40 121 139 419 220 663 l147 442 750 0 750 0 132 -388 c72 -213 170 -502 217 -642 48 -140 91 -265 96 -277 l10 -23 290 0 c159 0 290 2 290 4 0 5 -704 2071 -1085 3186 -37 107 -127 373 -202 590 -74 217 -139 410 -144 428 l-10 32 -330 0 -329 0 -11 -27z m351 -555 c40 -165 158 -569 211 -723 28 -82 116 -339 194 -570 79 -231 157 -460 174 -510 17 -49 31 -91 31 -92 0 -2 -286 -3 -635 -3 -349 0 -635 1 -635 3 0 3 65 195 310 922 119 352 214 666 281 933 19 72 37 132 40 132 4 0 17 -42 29 -92z"/>
<path d="M12140 10430 l0 -2120 275 0 275 0 0 2120 0 2120 -275 0 -275 0 0 -2120z"/></g></svg>
