<?xml version="1.0" encoding="UTF-8"?>
<svg width="659pt" height="738pt" version="1.0" viewBox="0 0 659 738" xmlns="http://www.w3.org/2000/svg"><g transform="translate(0 738) scale(.1 -.1)"><path fill="#3d9970" d="m5754 7079c341-518 115-896-55.7-1083l-16.9 72.9s-111-282-185-358c28.7 168-221 231 63.3 496-167 34.4-237-56.7-237-56.7s-243 252-655 126c-71.1-21.8-157-71-157-93 0-13 43.6-12.3 74-9 309 34 555-243 546-602-142-330-467-639-698-716-88.3-11.4-191-43.3-260-93.1-104-56-104-56-205-60-81.8-2.92-124-2.54-156 9.15-8.01 28.2 16.4 48.5 15.8 82.3 14.1-3.78 9.33-3.1 23.4-8.03-9.76 43.8 14.8 72.3 1.82 127 7.33 1.33 16.8-2.68 28.5-4.63-8.34 48.2 19.5 96.5-13.4 158 52 42.4 38.8 122 12 144 78.2 29.9 97.3 127 74.8 258-17.6-64.7-39.6-92.2-69.9-106 4 26.7 61.7 219 64.2 346-33.1-41.2-111-54.4-150-97.3 9.25 35.8 2.68 79.1-44.2 119-22.3-47.9-87.1-33.9-106-66.4 9.81 42.8 9.61 108-35.8 157-11.6-24.1-20.8-37.5-37.1-50 18.7 72.8-45.3 106-58.1 158-25.7-22.5-49.1-58.4-79.1-79.9 17.1 86.2 21.5 148-12 211-33.5 63.7-54.2 104-35.9 190 18.4 86.3-41.3 120-64.1 178-21.8-59.8-81.9-91.9-65.1-178s4.71-124-25.8-184-35.3-97.8-20.7-209c-27.5 19.6-48.5 50.3-76.4 70.3-23.4-61.5-71.6-103-50.4-160-14.7 11-21.7 20.7-27.3 43.6-44.3-47-55.9-124-26.2-164-57.4 53.7-105 30.3-125 72.4-23.1-41.3-51-89.2-39.4-113-41.9 27.3-81 20.2-146 102-25.1-51.7 26.7-317 47.6-358-24.5 9.76-52.3 33.6-60.4 107-47.3-106-12.7-213 59.2-247-38.9-36.4-41.6-116 10.5-154-31.9-74.9 12.7-107-5.43-166 11.8 3.84 16 3.69 24.3 6.03-15.7-55 15-74.3 2.08-113 12.5-1e-4 12.5 2.83 21.9 5.85-13.1-32.6 18.7-73.7 11.1-82.1-91.9-12.2-206-6-237-12-57-11-57-11-143 34-79 43-115 56-235 87-273 96.2-569 373-718 696-9.53 535 361 658 545 629 59-5 73-4 73 7 0 19-77.2 71-172 100-369 113-646-132-646-132-47.7 48-119 57.6-202 45.2 259-248 44.5-335 39.8-477-75.4 55.3-199 267-219 372l-24.7-69.9c-477 501-69.3 1089-69.3 1089s-323-104-412-495c0 0-208-290-91-689 1-77-38.6-98.5 23.4-388 0 0-63.9-135 99.3-467 0 0-52-225 194-480 0 0 29.9-169 184-326 0 0-0.844-195 257-322 0 0 149-277 518-309 0 0 79.5-148 297-196l-65-18c-100-29-204-85-272-147-124-115-182-339-186-437s17-141 35.5-189c18.5-48.5 110-180 178-236 75-63 193-115 369-163 88-24 222-57.8 258-87 11-142-180-340-300-354-28.3-1-152 56.7-533 127-107 3-246-122-214-266 9.36 38.8 39.1 74.9 97.3 66.2-78.4-45.1-81.4-188-44-264 0.768 63 34.5 104 122 115-29.8-28.2-78.5-92.4-80.9-154-2.4-61 4.26-100 31-151 4.19 54.1 12.5 71.1 87 111s47.7-65.1 551 70c268 62 273 63 288 44 14-19 15.4-83.2-3.81-123 160 56.9 338 241 115 332 45.3 51.5 96.8 42.2 140 42.2 137 5.04 157 42.8 179 92.3-42.9-5.37-59.6 39.4-122 48.7 31.5 86 323 237 315 489 18.2-17.9 63-31.9 92.1-33.1-21.7-187-250-457-266-484 21.7-2.47 63.5-22.4 76.5-29.2-13-16-50.7-75.6-82.5-93 34 0 130-60.9 145-73-119-169-297-215-470-275-236-89.1-381-118-388-260-7.72-143 150-203 231-151 81.2 52.4 66.6 149 11.3 185 18.3 21.4 181 36.5 277 42.9-152-102-200-147-200-229 0-61 18-102 57-131 46.5-33.8 147-46.1 200 11.4-12.7-59.7 3.89-128 58.9-167 55.4-38.3 135-44.2 192 5.14 9.39-103 101-166 171-156 175 26.8 111 213 44 203 39 64.3 162 161 191 164 3-33.4 2.09-52.7 9.09-109 14-125 37-216 92-371 52-142 64-148 104-49 77 190 115 341 115 458 0 46 4 64 13 64 33 0 169-94.6 198-160-70.1-15.1-75.8-111-33.7-161s123-48.4 170-19.2 72 75.7 80.1 134c125-93.6 287 22.6 251 158 44.9-59.4 185-46.1 231 30.2s28 138-1 184c-22 36-146 117-208 149 110-12.4 308-19.1 304-55.8-34.8-26.1-59-105-6.23-160 66.1-70.5 252-60.9 252 107 0 115-71.1 172-376 269-181 57-383 119-463 276 37.3 28.8 103 58.7 118 64-20.4 16.3-103 114-103 114s60.3 30.1 84.4 31c-25.2 48.5-230 300-268 487 38.5 9.55 63.3 19 99.9 35.8 49-275 217-311 304-487-27.7 4.21-63.5-68.6-111-50 56.4-82.3 76.6-82.9 167-87.7 58-4 128 15.6 156-39-134-72.2-157-256 110-320-28.4 47.7-34.1 104-4.74 126s299-48.7 525-101c227-52.5 268-2.91 306-16.5s104-46.7 98.3-114c45.7 46.4 55.3 210-30.1 293 12.5 0 99.9 0.803 108-91.2 49.2 99.4 0.121 233-52.2 259 29.7 12.4 92.9-6.78 102-42.1 1.49 138-86.8 219-160 232-73.3 13-107 0.813-319-54-212-54.8-236-78.8-334-38.7s-225 201-238 301c32.9 14.7 52 23 52 23 29 13 111 40 184 59 217 58 308 101 407 195 63 60 117 134 160 218 22 43 26 66 26 132 0 334-170 553-491 634l-91 23c222 66.1 272 184 272 184 470 67.5 508 317 508 317 233 127 270 327 270 327 147 126 156 295 156 295 281 214 202 486 202 486 165 267 115 503 115 503 51.8 248 11.1 326 11.1 326 88.6 308 22.8 557-79 710-17 121-141 418-419 515zm-4867-1135c-13.8-43.3-20.1-77.2-26.7-125-89.1 93.8-215 298-233 291-18.4-6.62 102-209 231-349-3.98-63.3-4.36-129 8-194-525 534-559 1140-124 1433 0 0-357-550 145-1056zm4843-368c11.9 92 2.99 188 2.99 188 143 137 258 363 238 373s-140-229-242-314l-21 135c378 367 280 819 132 1044 391-252 457-847-110-1425zm-4865-63 18.4-107c-175 108-374 425-392 414-17.9-11 173-309 394-474l37.7-162c-891 679-518 1310-518 1310s-96.6-437 460-982zm4809-320 32 127c238 195 402 477 385 490s-183-285-380-426l17.9 132c382 412 456 644 455 960 233-554-154-1042-510-1283zm-2318 1030c-12.5-60.3 6.38-99.6 37.9-171s46.2-107 3.3-229c-31.1 45.4-52.7 28.2-71.2 77.7-17.5-51.5-41.9-34.7-68-78.8-32 120-22 169 7.02 227s45.5 119 32 174c-13.6 55.8-22.3 80.6 29 148 51.3-65.3 42.5-87.7 30-148zm1944-103-25.1-36c-51.2 53-205 173-408 189 234 15.4 373-99.3 433-153zm-3528 125c-224-25.5-350-115-417-180l-23.3 29.6c85.5 84.8 268 162 441 150zm3517-227c4.42 59.8 93.2 150 179 153-79.2-86.2-135-182-31.9-359 44.5-76.5 2.29-190-9.71-257-56.4-9.29-189 5.03-256 33.3 9.44 328-217 656-570 624 465 123 690-195 690-195zm-3275 164c-456-5.29-545-402-554-630-65.3-35.8-186-46-252-32.1l-17 38c-26 76.3-39.2 138 39.8 265 47.3 76.2 55.2 190-49.5 307 24.1-3.2 86.3 8.54 164-128 0 0 234 310 669 180zm-877-542c13.6-62.5 36.4-157 36.4-157-143 59.5-204 219-224 203-17.9-14.5 80.3-189 238-258 0 0 38.3-138 62-186-188 58.2-302 221-341 313-23.5 57.1-20.3 310 18.9 386 14.7-66.1 129-254 210-301zm4530-137c-64.6-107-123-176-304-257 43.4 72 79.8 190 79.8 190 102 22.8 218 233 203 248-11.7 11.1-95-174-191-194 18 49.2 37.9 170 37.9 170 102 89.6 178 301 178 301s61.1-351-3.42-458zm-2490 201c-21.9 26.1-33.2 36.6-58.3 52-26.6 41.5 9.8 81.5 25.6 134 31.5-56.6 143-87.8 32.7-186zm331 183c3.17-51.3 60.8-75.7 35.1-139-27.6-20.7-35.4-32.8-52.4-53.6-121 116-7.45 138 17.4 193zm-127-183c-18.7 29.7-40.7 43-52.9 73.3-8.73-31.2-35.8-43.9-46.1-73.1-75 91.4 33.7 116 44.7 149 13.1-35 114-59.7 54.2-150zm-2447-576 30.7-95.3c-180 78.2-324 248-343 230-19.4-17.9 155-192 362-287l42.3-118c-728 380-672 941-672 941s146-381 580-670zm4627-269 57.9 131c186 85.9 374 269 356 285-17.6 16.5-163-142-346-240l33.9 102c441 284 564 643 564 643 12-383-270-723-666-921zm-2390 757c-28.9 14.1-58.8 16.8-84.8 2.09-42.5 63.6-46.7 97.6-29.8 141 27.3-51.9 106-26.9 115-143zm432-6.93c-31.4 6.28-56.8 28.1-94.4-0.191-8.49 93.9 64 99.6 102 154 20.7-77 10.1-126-7.53-154zm-178-34.2c12.7 29.2 26 7.65 30.9 39.4 15.8-42.6 5.56-94.5-47.7-94.6-7.9 101-58.4 89.9-69.9 146-16.9-56.7-84.2-63.9-74.3-142-73.1 8.09-53.3 73-42.6 97.4-2.4-24.5 20.1-14.7 28.7-38.2-7.88 51.2 23.7 26.1 82 143 71.4-118 98.5-90.3 92.7-151zm52.2 59.9c-31.6 22.8-36.2-2.47-58.4 18.9-24.5 23.6-2.62 42.7 8.53 80 8.58-46.5 63.9-49.3 49.8-98.9zm-224 23.4c-20.3-27.9-38.3 3.6-54.4-32.4-17.5 64 30.8 70.5 38 111 4.98-29.4 36.7-50.5 16.4-78.3zm-240-40.6c12.5-45.9-57.7-65.1-72.2-19.5 26.2-108 173 55.9 247-22.1-105 7.73-146-77.6-239-49.3-34.4 10.5-81.3 81.1-30.6 151 13.6-29.9 82.3-14.1 94.8-60zm744 65.4c40.3-73.3-6.34-149-35.2-156-113-28.6-133 42.9-230 42.3 43.6 64.3 212-67.8 238 26.7-21.8-31.9-74.2-34.2-72.2 13.7 1.91 48 59.5 34.7 98.8 73.1zm159-33c-16.4-131-76.3-98.9-144-120 13.3 78 103 75 144 120zm-1018-117c-67.1 13.8-137-32.7-157 123 44.5-69.8 113-37.9 157-123zm481-29.5c-23.4 27.3-64.9 25.6-87 1.57-7.03 64.4 28.5 64.1 44.1 108 13.4-43.4 57.4-47.7 42.9-109zm-191 42c2.96-14.6 12.5-23.9 21.3-31.2-84-20-280-99.1-345-148-14.1-5.49-30.9-30-68.1-19.6 15 56.5 309 184 391 199zm667-196c-33.3-13-50.4-10.1-95 22.6-44.6 32.7-224 123-304 140 12.5 8.56 18.7 15 26.5 25.7 53.3-4.17 251-87.5 373-188zm1560 160-12.3-52.1c-62.8-8.75-210 20.2-264 40l22.7 47.5c80.4-25.8 179-43.3 254-35.4zm-1523 17.4c-10.3-51.2-25.2-91.6-36.3-132-34.2 27.7-113 73.2-137 86.6 29.6 29.7 125 6.27 173 44.9zm-2429-17.2 19.6-43.4c-78.4-28.2-179-49.4-253-38.2l-14.9 49.1c60.3-9.51 184 1.17 248 32.5zm1488-19.1c-72.5-25.5-142-76.6-159-88.1-13.9 32.1-26.1 82.3-31.4 130 27.4-50.4 138-1.65 191-42.3zm383-60.3c-49.6 0-50.2 70.8 0 70.8s49.6-70.8 0-70.8zm-50.9 59.2c-11.3-19.6-6.28-36.7-0.186-51.7-24.3-20.3-29.3 11.4-52.4 24.5 21.8 11.9 29.7 44.2 52.5 27.1zm156-31.1c-22.5-9.98-28.4-36-53.8-23.6 7.19 16.3 10.8 35.6 2.66 53.1 24.2 11.7 31.9-13 51.1-29.5zm-222-22c-126-23.5-247-121-280-66.8 52.2 33.9 234 107 274 111-15.8-18.9-6.17-35.4 6.71-44.4zm502-78.8c-44.2-48.7-204 72.6-268 76.7 19 2.35 27.8 24.5 13 41.1 101-37.4 191-79.5 255-118zm-3231-106c102-139 334-354 553-447l50.2-107c-144 38.6-346 214-359 197-13.7-16.7 193-190 384-252l78-102c-792 276-815 837-824 906 18-37 90.3-157 119-195zm780-62.6 33-66.5c-127 15.5-234 104-243 90.1-8.65-14 130-121 266-131l63.3-99.7c-187 24.9-375 152-429 237-39.1 62.1-49.9 236-49.9 236 14.9-24.8 138-201 359-266zm4120 223-20.3-50.6c-65.1 2.63-184 24.2-244 43.5l28.1 45.2c34.6-11.8 160-42.2 236-38.1zm190-263c-76.9-62.3-172-157-382-174l68.1 105c87.8-5.52 284 102 275 126-8.72 23.1-139-87-251-88.5l50.2 82.1c252 83.3 338 251 338 251s-22.1-239-99-301zm-4078 283 22.9-43.4c-80-36-179-65.6-260-68.8l-21.7 61.1c71.1-0.848 171 14.5 259 51.1zm3901-884 72.4 112c219 61.5 395 227 382 246-12.9 18.5-161-136-361-201l56.8 102c554 269 654 639 654 639 2.67-405-388-778-804-898zm-2065 772c7.77 39.4 61.9 30.9 64 82.9 93.7-1.42 176-82.5 266-89.4-46.5-25.3-151 17.2-219-78.1-46.9 111-215 92.5-249 2-72.1 97.4-175 47.9-217 84.9 59.5 2.35 191 87.8 284 80.8 3.3-49 59.8-45.1 71.5-83.1zm36.8 96.2c2.24-38-25.5-34.5-37.4-60-10.9 25.5-50.7 28.1-41.4 60 23.7-16.6 56-14.6 78.8 0.047zm1980-94.3-21.5-36.3c-57.8 1.13-220 36.5-280 63.6l17.4 31.7c63.4-25.2 209-52.9 284-58.9zm-2413-160c-15.2-122-174-99.3-163-16s105 57.8 87.9-1.96c40.7 45.1-4.51 81.1-54.9 88.5s-94.1 62.4-90.7 123c41.6-97.3 238-50.4 221-193zm994 202c-4.7-68-32.1-124-95.8-125s-85.9-51.6-63-81.3c3.34 76.1 106 48.4 92.5-21.3-14.3-75.6-145-70.3-155 19.7-7.99 68.9 14.5 114 128 137 14 4 56.3 11.2 93.8 70.6zm-2392-60.5c-70.2-37.1-176-66.6-242-73.2l-21.9 44.8c63.6 6.66 151 29.5 239 68.1zm1356 42.5c4.98-20.8 4.19-29 10.3-49-19.8 8.76-27.4 11.7-53.3 22.2 16.9 10.4 28.4 17.1 43 26.8zm845-54.8c5.26 15 6.61 27.6 10.9 45.7 18.9-11.5 26-13.5 44.4-21.2-27.3-9.35-37.3-15.1-55.3-24.5zm1575-37.8-46-74c-94.3 10.8-201 40.6-251 67.3l44.6 62.7c69.7-28.8 180-53.6 252-56zm-2257 13c184 3.79 182-297 79.3-214 82.9 22.5 61.3 169-79.7 165-74.5-2.6-96 23.8-114 87.5 17.4-14.6 31.2-39.3 114-37.6zm516-47c-116 17.6-182-129-52.7-176-85.1-88.2-160 207 51 225 94.9 8.15 102 0.259 127 23.9-4.5-60.5-65.2-82.1-125-72.9zm-1960 32.6c-46.5-36-208-89.4-280-96.9l-18.7 37.9c49.4 2.73 211 48.6 274 91.1zm1766 11.4c103-62.5-23-226-55-274-36.9 48-173 210-72.1 270 48.6 28.8 83.8 30.5 127 4.12zm1873-121c-162-277-406-618-788-866 15.9 221-2.03 404-32.7 544 157 65.1 371 211 516 409 60.5-30.6 222-81.6 304-87zm-3643 68.9 42-59.7c-88-54.8-183-86.7-258-97.5l-43.4 69.7c75.1 5.62 184 46.6 260 87.5zm1550-69.8c-26.8 62.5-103 42.1-103-13.7 0-55.7 77.7-79.6 103-15.9 0.458-63.7-142-90.7-194 89.6 31.9-48.2 168 42.1 195-60zm514 48.8c-14.1-114-172-177-202-70.7 24-63.3 109-47.3 110 10.2s-73.7 82.1-105 22.5c36.8 102 153-3.68 197 38zm-1484-400c-28-161-45.4-396-31-538-290 187-556 471-744 770 116 25.8 197 60.8 288 117 157-162 303-276 487-349zm-780 149 63.6-89.7c-185-10.1-304 72.1-313 57.4-8.29-14.7 112-95.2 340-98.4l104-127c-132 0-366 42.3-460 110-95.8 66.1-160 329-160 329 133-135 343-178 425-181zm4056-123c-54.3-50.2-177-153-485-138l80.3 106c186-1.57 392 96.1 378 115-14.8 18.9-173-74.7-345-74.3 0 6 74 102 74 102 285 17 435 179 435 179 2-3-82.7-240-137-290zm-2458 236c-132-246 128-403 281-314 30 18 32 18 63 0 176-105 421 94.5 282 312 17.2 13.7 26.5 24 43.3 41.4 101-181 4.26-468-302-388-48 12-62 12-110 0-274-66.4-399 159-296 391 14.4-22 25-32.3 38.8-43.8zm203-72.1c-133-37.1-90.3-166 29.4-151-188-41.9-202 171-85.2 164 35.6-2.22 74.9 29.5 80.6 64.5 31.5-44.9 31.9-62.1-24.8-78zm-299 78.3c-17.2-105-56.3-108-106-119 4.79 27.5-19.4 50.1 5.75 108 25.9-17.5 77.2-6.33 100 11.2zm566-61.8c103 9.8 113-205-70.8-170 140-2.48 125 132 34.1 150-81 15.7-61.9 49-28.7 83.2 0.803-37.1 30.8-65.9 65.3-62.6zm350 54.5c20.6-23.3 15.5-58.4 13.7-94.7-39.4 12.4-86.9-4.33-108 106 24.1-16.5 68-20 94.1-10.8zm-504-251c-161-150-420 54.3-277 235 18.1-11.5 35.1-12.8 61.2-11.9-135-61-57.6-285 168-217 39 14 48 14 88 0 276-84 259 191 181 209 22.2 3.57 36.9 9.99 50.8 19.5 150-181-110-391-272-235zm-2069-325 41.2-54.3c-156 9.21-368 120-373 97.4-5.44-22.4 231-129 410-142l71.9-75.6c-924 102-925 689-925 689s183-339 775-515zm3926-175 67.9 72.9c246 31 430 131 424 155s-231-104-392-110l55.8 71.8c533 137 750 489 750 489 49.3-335-430-636-906-679zm-1778 571c-33.2 5.19-51 29.5-78 52-25-20.7-53.3-43.3-80-45 10 27.7 51.2 63.7 78.5 83.1 26.9-18.4 79-62.5 79.5-90.1zm-576-42.8c6.67 18.8-14.4 43.2 3.67 79.3 24.1 4.34 41.8 11.3 62.3 29.1-2.5-78.5 10.3-84.1-65.9-108zm986 93.8c10.7-49.9-1.41-64.8-0.315-89.3-69.6 23.5-66.8 42.1-60.8 110 23.1-13.5 42.1-18.7 61.1-21zm-422-91.7c-52.4 28.9-78.5 27.3-137 4.33 34.6 15.6 47.5 19.9 69.7 47.1 14.5-24.7 49.1-39 67.6-51.4zm-530-108c0.503 31.2-15.8 39.8-9.01 78.4 16.5 8.25 44.1 11.4 60.9 32.9 27.2-77.4-17.5-84.5-51.8-111zm929 86.4c1.67-33.9-16.9-51.6-15.1-79.7-57.2 25.5-60.3 52.6-37.9 109 17.2-17.3 36.8-26.2 53-29.2zm417-59.7c35.1 33.2 139 69.1 191 70.6-32.8-76.6-109-93.9-191-70.6zm-1793-35.8c-76-17.6-166 16.3-187 70.5 46-0.583 156-34 187-70.5zm2015-457-70.2-49.1c34.1 241-9.86 517-9.86 517s40.8 21.1 58.5 56.6c39.3-211 39.8-380 21.5-525zm-2792 390 50.8-57.1c-196-34.9-320 15.5-322-5.13-2.1-20.7 194-61.2 356-26l62.7-62.7s-144-63.6-366-27.3c-207 33.8-302 282-302 282 0 6 176-109 521-104zm3622-150c-93.2-35.9-249-57.4-453-5.45l64.3 62.4c136-42.6 380-6.71 377 19s-196-33.9-343 15.9l49.2 51c359-21.3 515 121 515 121s-116-227-209-263zm-3e3 -310-57.3 37.1c-18.8 162 0.62 384 19 525 25.2-26.9 30.8-34.1 56.5-49.2-26.5-128-24.9-450-18.2-513zm963 479c99 9 99 9 213 0 166-23.5 207 25.6 252 61-103-362-600-359-718-3 33.4-15.8 73.7-81.7 253-58zm998 45.7c35.5-145 39.3-433 7.6-570l-116-51.3c-2.6 16.9 49.4 104 49.4 104s-55 25.6-101-136c-116-407-404-375-656-312-89 22-40.5 22.8-127 2.48-162-50-541-120-651 286-41 151-63.5 145-105 155-14.1-12.2 31.4-10.8 64.4-132-110 10.3-192 54-192 54-30.8 149-15.4 421 10 570 81.2 21.7 72-31.8 177-19 51.4-15.6 65.9-68.8 147-101-53.1-37.2-56-118-93.1-146 49.2 1.77 142-49.4 209-23.8-50.7-47.9-41.5-170-63.9-203 40 15.9 146 4.37 209 53.8-38.4-77.4 29.1-175 22-217 27.8 34.3 146 58.6 180 135-13.3-87 118-186 140-239 14.8 50.9 140 158 134 232 34.3-75.8 161-93.2 185-126-9.24 37.9 34 135 0.97 213 58.5-63.2 182-51.8 213-67.5-17.1 27.7 7.38 151-52.7 205 74.7-30.1 173 20.9 209 18.5-24.5 24.3-44.9 134-115 169 80.7 0.553 97.3 50.2 182 115 71.9 38.9 73.1 55.9 134 30.2zm106-522-60.5-32.9c20.6 109 24.9 382-8.48 552l63.7 3.64c23-177 28-353 5.21-523zm-1398 520c36.1-154 203-273 286-283-13-16.3-26.4-25.7-36.5-42.2-169 61.2-266 222-283 306 9.78 5.56 21 7.78 33.1 19.3zm835-22.7c-57.3-192-211-268-284-302-7.2 10.7-17.2 23.6-33.3 41.7 108 22.3 252 141 281 281 15.2-9.96 25.5-13.4 36.8-20zm-1394-4.78c-23.3-131-38.4-364-14.8-555l-57 36.4c-18.1 114-9.1 425 15.7 524zm376-15.4c0.809-22.3 4.88-55.7 11.6-76.5-71.7 9.18-96 65.9-124 77.1zm422-321c-19.5-64.4 3.93-121 32.5-151-228 45.5-407 300-418 474 26.5 2.61 46.7 2.39 69.8 6.17 46.6-172 216-308 316-329zm710 320c-21-275-265-409-429-473 39.6 44.4 50.1 88.4 40.4 149 159 68.7 264 172 315 331zm152 6.65c-39.3-21.3-50.4-61.8-121-69.2l6.64 62.6zm-1207-242c-51.5-22.8-96.1 9.43-132 6.28 26.6 23.8 26.1 92.9 75.8 105 8.74-20.8 43.4-86.8 56.3-111zm1148-10.3c-38.1 6.59-85.1-25.1-133-5.32 17.8 28 47.7 84.2 59.6 113 44.3-24 44.6-81.4 73.9-108zm-2528-167 71.3-64.3c-145-8.14-410 48.3-414 27-3.6-21.3 268-74 463-69.4l85-67.3c-823-78.3-955 432-955 432s255-226 750-258zm3492-184 105 77.2c223-28.3 495 67.4 490 90.8-5.36 23.4-189-73.7-449-52.8l66.8 70.8c499 30.9 730 246 730 246-51.9-277-477-508-943-432zm-3110 390 54.2-52.1c-158-56.2-309-33.7-309-49.7 0-15 166-38.4 345 19.9 0 0 64.7-50.5 64.7-52.5-188-75.6-375-51-515 16-55 26-124 104-124 104s193-71.7 483 14.4zm3434-13.4s-97.7-250-648-119l77.3 58.2c88.4-47.5 334-49.4 333-30.9s-173 7.48-302 59l47.5 48.5c317-92.3 492-15.5 492-15.5zm-1934-267c-170 0-172 244 0.074 244 172 0 170-244-0.074-244zm-367 88.8c-42.3-40.3-99.1-24.3-136-40.4 15.5 37 8.1 98.9 53.3 131 18.1-25.1 65.8-72.6 83-90.3zm866-54.2c-23.9 12.9-104-2.01-138 54.1 34.5 25.5 68.6 49.6 96 80.3 50.7-42.2 28.2-108 41.7-134zm-1762 50.8c-90.1-60.5-237-57-234-75.8 2.67-18.7 196 1.2 273 49.9 0 0 40.2-25.5 40.2-30.5-173-114-473-76-518-53-47 24-148 133-148 133s249-116 547 2.2zm3058 21.6s-179-309-669-76l45.4 33c105-52 302-79 305-53.2 2.45 17.5-191 26.5-270 80.4l43.6 27.3c350-95.8 545-11.5 545-11.5zm-1971-118c-21.9-66.7-91.8-64.2-113-87.1 1.9 30-50.2 85.9-10.8 140 26.5-17.8 93.9-45.7 124-53.4zm475-88c-23.2 26.7-98.2 31.9-123 87.2 38.2 18.9 76.6 37 114 53.8 26.6-50.7 1.21-109 8.63-141zm-2755 116s296-223 831-161l85.3-60.2c-130-33.9-423 3.85-427-19.6-3.93-23.4 303-49.7 482-19.6l94.2-59c-296-33.2-456-39.6-739 43.7-283 83.4-327 276-327 276zm4849 7.61c-124-309-618-427-1070-329l93.8 58.9c258-50.7 552 7.62 553 26.1s-295-40.8-505 5.21l106 69.8c585-74 822 169 822 169zm-3527-20.8 46-32.4c-61.5-60.9-219-87.3-217-106s206 30.7 250 83.5l41.5-26.5c-72.5-100-329-146-403-134-85.6 13.8-202 121-202 121s266-40.1 485 94.1zm2221 3.67c268-137 477-107 477-107s-115-90.3-187-108-338 29.7-439 141l61.4 29c101-88.2 303-126 310-108s-190 41.4-277 126zm-989-34.9c9.8-68.2-82.7-137-92.9-170-7.51 33.7-110 98.9-97.7 170 68.6-19.2 124-19.4 191 0.094zm1236-225s-95.8-60.6-153-77.3c-57.5-16.7-224-0.288-424 143l18.6 57.6c80.8-73.1 296-157 310-136 14 21.4-177 60.7-267 146l74.1 32.6c157-152 442-167 442-167zm-2298 153 66.1-28.9c-44.7-44-214-111-208-126 5.9-15.2 205 65.2 247 110l75.5-17.3c-266-175-409-183-487-161s-125 73-125 73 253-10.4 431 151zm254-140c-56.4-58.9-226-133-222-151 3.78-18 174 59.2 242 115l35-55.1c-44.7-43.6-192-133-286-137s-226 93-226 93 179 15.6 435 202zm1452 15.3c214-148 370-148 370-148s-131-98.2-236-93-197 81.4-222 100l39.3 51.5c70.9-65.6 216-97.9 224-85.6s-142 42.5-206 109zm-2086-110 89.6-50.3c-138-58.3-404-50.3-403-72.6 0.792-22.2 292-12.6 460 41.1l109-54.6c-120-52.2-447-85.4-697-53.1s-397 239-397 239 335-160 838-49.9zm3469 48.4c-61.8-200-599-371-1081-185 30.3 20.3 94.8 53.9 94.8 53.9 262-97.4 541-48.5 543-32s-280-19.5-498 57.1l85.1 51.9c553-113 856 53.9 856 53.9zm-2777-298s-99.7-6.05-237 83.1c0 0 144 37.3 259 136 50.4-56.9-1.53-51.6-21.9-219zm1495 86.3s-103-64.7-175-42.4c-34 51.2-34.5 142-34.5 142 106-87.2 210-99.7 210-99.7zm-823-90.1c-45.5 0-108 57.5 0 142 111-82.9 45.5-142 0-142zm-596 148c67.2-35.4 364-111 451-120l-35.6-23.1c-92 12.4-345 76.6-428 114zm1184-42.1c-90.2-39.8-310-83.5-403-93.4l-29.1 20.2c111 13.8 320 60.2 424 100zm-285-16.6c-75.4-20.9-176-31.3-215-32.9 0.544 23.3-5.54 42.9-27.6 66.9 66.8-10.7 80.3-31.4 243-34zm-395-34c-37.4-3.48-168 17.2-207 34.5 139-3.44 173 26.9 239 33.5-22-24.7-28-48.2-31.3-68zm-952 30 96-41.3c-189-107-436-89.5-433-114s299-13.4 491 88.3c0 0 77.7-27.7 173-52-204-144-563-132-720-112s-266 158-266 158 360-35.9 659 73zm2646-76.9c-119-191-644-235-941-11l138 36.1c175-124 530-125 532-105 1.46 19.7-327 20.6-482 123l119 37c357-124 634-80 634-80zm-1808-27.5c-20.9-12-22.7-20.6-9.41-38-81.5 10.4-361 79.1-412 103l10 44.1c84.9-36.6 317-97.2 412-109zm811 56.7c-84.7-35.7-333-87.6-392-94.8 15.4 18.4 15.7 27.7-9.45 42.7 88.5 7.78 308 58.7 392 92.3zm-1236-21.7c86-32.9 346-93.7 438-104 0 0 17.6-25.4 55.5-40-129 18.8-413 82.9-495 116zm584-60.5c0-40.2-55.1-119-141 0 84.2 111 141 40.2 141 0zm238 0c-103-121-148-43-148 0s47.8 114 148 0zm421 27c-125-48.7-364-90.8-457-104 18 12.8 30.7 21.9 41 33.6 81.4 9.69 281 51.7 415 96.1zm-612-1.95c36.1 0 33.7-50 0-50s-36.1 50 0 50zm-97.2-142c26-22.5 59.8-82.5 97.2-98.3 34.7 18.7 79.9 73.9 86.8 94.8 92.4 7.02 438 85.7 516 112-49.8-209-199-336-365-412-113 123-366 120-478-6.78-162 51.7-348 259-381 422 58-21.6 427-106 524-112zm-561 71.5 16.6-49.7-55.6-26.7-20.2 52.4zm1358-16.3-16.7-51.9-56.2 24.9 17.4 48.5zm-700-118c-106 88.5-52.1 137 0 137 52.1-0.094 104-52.3 0-137zm-162-446c4.44-30.2 15.4-54.5 35.5-77.2-359 75.7-626 343-680 618l48.3 25c77.8-333 413-531 597-566zm310-68.2c13.9 22 24.2 44.2 24.9 69.7 221 28.1 527 296 567 568l56-29c-35.1-238-296-556-648-609zm-966 508c-97.8-3.8-126 46.7-151 55.7 41.6 6.3 95.8 22.9 127 34.3 6.89-37.2 14.5-64.4 23.8-90zm1753 60.6c-23.4-13.6-81.5-76.6-130-60.2 9.96 27.7 17.8 55.5 22.4 88.2 18.2-6.79 84.8-24.2 107-28zm-1954-11.6c37.2-5.36 63.7-84.4 213-87l13.4-30.5c-73.7-43.7-68.4-150-102-193 51 9.26 141-34.9 216 25.1l22.9-28c-52.2-58.5-34.7-150-62.8-200 55.4 21.8 162 6.16 212 68.4l51.7-35.6c-42.5-68.5 18.9-170 16-215 33.2 30.7 154 42.5 182 125l66.9-19.6c2.21-73.9-4.14-161-16.9-214-352 28.5-785 322-868 798 23.8 0.86 33.1 3.88 54.8 5.71zm2079-6.39c-2.43-159-209-705-822-801-7 39.5-24.8 165-24.2 222l33.3 8.5c32.2-84.4 133-87 165-120-6.62 44.4 67.9 128 23.3 199l50.8 32.9c58.5-75 178-53 206-63.1-8.96 27.7 15.4 142-50.2 200l29.6 34.4c70.6-53 159-5.68 205-7.36-30.8 39.7-31.7 135-102 172l19.5 47.2c79.5-27.1 147 75.3 195 82.5zm-2261-63.6c23-184 160-429 320-573 159-143 336-249 642-305-11.9-40.8-28.1-92.3-40.6-126-15-2-66.4 2.71-81.4 12.7s-42 18-60 19-40 9-50 18-31 16-46 16c-16 0-36 10-50 25-13 14-34 25-49 25s-33 10-45 25c-11 14-30 25-42 25-13 0-36 15-54 35-18 19-40 35-50 35-9 0-24 13-34 29-9 16-31 36-49 45-18 8-35 26-38 38-4 13-21 32-38 43-18 11-33 30-35 41-2 12-14 27-28 34-13 8-27 25-31 39-3 14-19 38-34 53-16 15-29 37-29 49s-11 32-25 45c-16 14-25 34-25 52 0 16-9 37-20 47-13 12-20 31-20 55 0 21-7 43-15 50s-15 29-15 50c0 22-7 43-16 50-11 10-14 23-8 54 8 53 12 58 37 54 19-3 23-12 29-60zm986-780-14.1-60c-571 86.2-875 498-944 897 28.9 2.52 20.4-0.484 51.1 1.23 24.4-53 115-715 907-839zm-401 837 25.5-41.5-53.1-36.2-28 49.2zm1279-19.1-28.6-54.6-54.8 36.8 25.5 44.9zm482-41.5c-20.2-186-212-691-887-830l-11.8 59c566 102 807 512 856 834l49.4-1.81zm105 36c10-27 3-68-15-90-6-7-10-28-9-45 2-20-3-38-12-45-9-8-16-29-16-51 0-24-7-43-20-55-11-10-20-30-20-45s-10-36-25-50c-14-13-25-34-25-47s-11-34-25-47-30-37-36-53c-5-17-21-36-34-43s-25-22-27-34c-2-11-17-30-35-41-17-11-34-30-38-43-3-13-19-29-36-36s-39-27-49-44c-14-22-27-32-44-32-16 0-27-7-31-20-6-20-52-50-76-50-6 0-20-11-31-25-12-15-30-25-46-25s-37-11-51-25c-13-14-34-25-46-25-13 0-40-9-60-21-19-12-42-18-51-15s-27-3-41-14-30-22.7-51.5-22.8l-32.9 143c495 78.1 859 471 913 851 10 75 12 78 36 76 16-1 28-10 34-26zm-2562 8-71.8-119-128 45.5 29.1 53.5c54.8 32 178 31.7 170 19.8zm2829-33.3 27.1-49c-60.8-7.66-160-36.6-160-36.6-26.5 50-88 134-88 134 63.2-1.5 155-24.9 221-47.9zm-3045 8.55-21.5-36.1-40.9 13.2zm2786-308-73.3-33.4c-1.05 43.2 48.6 64.2 41.1 111zm87.7 199c-52.2-19.7-96.9-45.6-96.9-45.6s19.4 15 13.4 42.1c-7.21 32.6 28 67.1 21.5 98.2 21.4-21.4 62-94.7 62-94.7zm-1865 15.8-48.3-42.8-38.7 47.3 53 37.7zm1116 8.33-32.5-42.9-47.3 41.2 30.7 38.5zm-1877-47-56.7 19.9 33.8 62.3c2.45-35.3 33.4-48.8 23-82.3zm-363 76.2c25-7 69.4-22.7 69.4-22.7s-36.4-64.8-70.7-136l-137 25.6 22 51.1c33.2 42.3 117 82.4 117 82.4zm3322-30.4c33.9-15.3 59.5-42.1 59.5-42.1l39.8-108c-55.1 10.1-123 13.8-123 13.8s-20.2 60.5-55.2 133zm-3085-49.8c-33.2-61.4-51-112-53.1-112l-136 25.5c28.1 67 63.8 131 63.8 131zm3016-87.1c-62.1-1.42-154-21.3-154-21.3-17.3 43.5-54.8 112-54.8 112s96.7 29.8 159 35.6c0 0 33.7-70.3 50-126zm-2312 18.2c-66.2-42.4-121-18.3-147-20.9 15.9 23.2 20 112 75.5 126 17-31.7 44.9-69.8 71.9-105zm1534-17.6c-24.2 2.74-96.9-30.2-137 10.6 18.4 22 56.9 84.9 65 102 54.6-33.1 56.3-91.7 72.3-113zm-1275 52.5-43-49.6-41.5 40.6 47.1 43.7zm920 42.7 46.7-44.9-37.8-38-41.2 53.2zm-1743-56.5-30.8-94.9-116 21.4s15.7 42.9 51.8 105zm2680-70.9c-42.9-8.5-120-38.4-120-38.4l-40 95c45.6 28.2 108 51.4 108 51.4s23.7-39.2 52.5-108zm-1272 58c-13.5-22.9-20.7-37.7-26.6-64.3-60.8 48.1-159 50.7-218-0.12-3.28 25.3-12.9 47.4-28.4 69.6 81.1 38.7 199 39.5 273-5.17zm-2054-449 1.74-64.8s-16.9 33.7-19.9 65.8zm1511 445 39.1-29.1-35.7-56.1-44.2 32.4zm804 10.6 40.5-52.5-44.4-32.6-35 57.4zm-558-11.2c14.7-15 33.5-48.7 30.5-74.9-26.5 7-63.3 22.1-85.9 30.1 16 20 28.6 29.9 55.4 44.7zm369-38.9c-24.1-13.6-40.2-22.2-76.7-39.7 1.9 22.8 14 56.7 31.6 71.5 18.6-8.76 33.1-18.3 45.2-31.7zm1628-13.1-23.9 8.18-25.4 59.5zm-3500-6.96s-25.8-74.3-41.8-145l-141 15.3c16.1 71.1 44.3 155 44.3 155zm179-32.1s-29.8-74.3-43.7-137l-130 17.1c16.2 71.2 41.7 144 41.7 144zm1203 17.2-27.3-62.2-48.7 24.1 32.6 57.7zm284 20.5c67.4 0 138-51 138-139s-55.1-150-139-150c-83 0-141 60-140 154s73.9 135 141 135zm345-50.5-48-28.2-30.6 65.3 40.7 23.3zm1265 43.2c21.3-70.8 34.5-156 34.5-156s-68.9 0.882-143-5.92l-43.5 140s97.9 20.3 152 22zm168-17.5c25.1-75.8 38.3-144 38.3-144l-129 6.02s-15.8 86.8-35.4 155c0 0 76.8-3.77 126-16.9zm-3619 50.9s-31.2-89.6-47.1-159l-23.8 2.59c12.1 50.2 44.8 119 67.9 158zm1690-78.3c-16.4-28.3-20.4-59.3-21.4-94.4-33.8 6.33-59.4 20.1-94.4 32.9 5.25 29.7 17.5 64.2 32.2 91.9 12.7-3.83 58.4-22 83.6-30.4zm411-58.3c-32.2-15.6-54-22.9-89.3-30.6-1.83 30.9-6.83 58.8-22.4 87.8 23.6 12.6 49.5 24.2 75.2 36.6 14.1-24 29.6-65.5 36.5-93.8zm1590 69.6c33.3-51.7 48.1-133 48.1-133l-38.9 3.16s-13.1 65.1-38.2 137zm-3175-26.6-39-130-118 16s11.3 59.2 45 135zm2741 29.1 40.7-135-122-12.5-36.2 110s71.7 28.5 118 37.7zm-1962-76.3c-45.2-48.2-105-34.1-134-45.9 16.8 26.4 1.14 94.3 43.5 128 18.6-20.1 61.5-57.5 90.9-82zm1198-69.5c-32.6 16-95.5-8.78-144 50.4 30.3 22.9 76.9 65.4 99.1 86.6 51.8-43.2 32.1-107 44.6-137zm-1874 97.7c15.4-2.64 22.5-47.3 33.5-57.3l-11.7-76.8-118 16.7s13.1 54.5 37.7 127zm2482-3.57 32.1-102-121-22.4-14.3 78.2zm-2980-108c-18.3-88.2-21.6-156-21.6-156l-136 5.45c-0.615 70.3 20.9 165 20.9 165zm179-23.3s-14-81.5-17.9-138l-133 4.87c4.38 67.7 20.8 150 20.8 150zm3191 14.7c18-75.9 25-153 25-153l-137-0.89s-12.2 84.7-28 149c71 7.52 140 5.41 140 5.41zm173-5.77c15.5-77.4 19.3-151 19.3-151l-122 3.85s-9.01 74-24.2 150zm-3198-31.1-18.8-123-113 5.44c3.39 68 16.2 131 16.2 131zm1073-6.5c-25.7-66.5-98-63.8-121-86.4 5.16 30-41.4 83.1-5.08 144 25.8-16.5 95.1-47.1 126-57.9zm1766 36.1c19.2-70.7 28.2-149 27.6-149l-122-3.05s-9.51 76.2-23.8 140zm-1069 6.74c33.1-56.7-12.6-102-11.3-136-22.7 26.2-87.9 16.9-108 85.9 33.1 10.8 85.6 31.7 120 50.3zm1509-10.8c17.4-71.3 12.7-147 12.7-147l-30.4 2.44c-4.49 72-20.2 148-20.2 148zm-3802 38.7c-14.7-74.1-21.3-126-20.9-169l-24.6 0.658c-4.89 35.4 2.38 119 17.8 171zm692-86.9-14.3-108-125 6 19.7 118zm2508 34.4c12.8-56.1 22.8-137 22.8-137l-132-8.68-15.9 122zm-2412-46.1c6-14 46.2-57.4 60.2-67.4l-4.64-40.3-117 6.81 13.1 106zm2247 15.1 14.5-117-120-9.2-6.02 57.1c14 10 38.4 41.7 44.4 55.7zm-964-19.2c-6.27-130 99.8-641 156-752-100-94.5-229-112-332-112s-229 24.7-348 120c12.5 19.7 48.2 111 48.2 111 84 228 152 462 142 627l35.7-6.34c11.6-191-56.9-514-147-725 122-90.7 385-99.4 520-13.5-73.4 225-146 555-125 743zm-93.5-24.9c12.1-89.9-58.3-141-80.5-188-20.7 47.7-96.6 93.8-86 193 54.6-30.1 121-25.2 167-4.45zm-1824-89.8s-5.08-100-2.32-189l-82-4.08c-31.9 42-51.3 68.4-51.3 68.4l-0.286 129zm186-178-141-7.08c-2.58 89.1 3.09 184 3.09 184l135-5.4s-1.78-98.9 3.11-172zm3235 172c5.35-89.1 0.347-185 0.347-185l-146 8.05s8.85 94.2 7.92 177zm169-3.03c4.77-57.6-0.718-127-0.718-127s-16.5-34.2-48.3-61.5l-75.3 3.25s4.73 102-0.75 187zm-3245-5.26-1.73-28.6-21.2 8.86c-24 12-61 13-61 1 0-9.22 81.1-49.5 81.1-49.5l3.85-85.4-110-7.03c-6.03 80.3-1.89 166-1.89 166zm2890-9.14c3.43-70.2-5.05-156-5.05-156l-119 7.58s4.33 50.8 4.33 97.8zm-2714-1.66-2.46-94.2-128 56.2 2.12 46.1zm2218-10.8c7.86-53.3 6.72-108 5.97-108l-132 8.83-5.49 22.9c1.63 14.7 57.2 30.1 74.9 69.9zm333 22.6 1.51-35.1-126-51.2-6.8 79.3c11 1 131 7.1 131 7.1zm-2301-25c6-13 31.9-48.8 68.7-56l1.26-34.6-116-11.8 6.67 104zm1181-581c-86.2-59.1-353-56.2-439 13.4 95.2 226 133 510 138 581 18.5-41 67.1-82.5 90.6-136 27.4 51.9 68.2 89.5 90.5 138-1.01-84.6 36.8-356 120-595zm-1271 474-86.7-5.1-29.6 14.3 4.74 108 120-6.33zm2219 122 7.62-92.5-85.3-33-35.6 2.35s-0.386 69.4-7.87 114zm175-64.3-2.87-82.2-122 9.05 0.803 21.1zm-2576-68.7-106-5.48-3.31 56.7zm2091-82.5-107-36.7-26.9 49.5c31 12.3 54.1 55.3 74.4 54.8l52-1.48s3.71-20.2 7.71-66.1zm-1632 37.4 14-53.9-65.4-15.6-12.1 4.8-9.23 99.8s19.7 13.9 72.7-35.1zm-114 27.2 6.32-74.8-125 45 1.54 16.6zm1894-10.5-110-40.3c-2.58 30-7.41 49.8-7.41 49.8zm-2217-17.3s-0.778-71.5 13.8-154l-114-23c-17.9 82.5-23.3 168-23.3 168zm2300 8.67 83.3-6.78c-5.18-81.8-18.9-143-18.9-143l-111 20.8s5.64 41.5 10.1 113zm245-20.1c-11.3-70.2-36.3-162-36.3-162l-101 23.3s13.6 72.1 19.2 148zm-2713-0.536c-0.992-0.142 6.77-90 24.9-174l-110-20.2c-10.5 63-18.5 121-24.8 186zm331-20.6 5.62-88-108-24.7c-15.3 67.1-14.2 148-14.2 148l21.6 0.712zm2542 9.77c-5.45-90.4-26.9-193-26.9-193l-128 32.3s25.7 99.9 37.6 169zm-3221-8.75 4.1-67.1c-23.8 18.4-43 36.9-64 63.4zm214-175s-89.3 26.5-164 76.6l-6.51 99.6 147 8.64s7.85-93.8 24-185zm2515 95.1-102 17.5 1.71 28.5 109 41.5c-0.29-40.7-9.55-87.5-9.55-87.5zm688 78.2-10.3-93.1c-33-34-98.5-64.7-164-80.6 0 0 17.4 96.1 25.2 182zm44.3 0.289 56.9-2.21c-26-29-64.2-59.4-64.2-59.4zm-2631-52.4-102-24.5-5.5 60.8zm1610-1.37c-13-4-55.7-17.8-66.7-18.8l-17.2 21.2c25.9 6.24 62.8 36.1 62.8 36.1zm-1376 20.8c27.8-27.6 52.1-6.05 71.8-41.8l-38-32.5-88.2 32.1-0.56 27.7zm1518-61.9c-2.51-30.2-11.6-61-11.6-61s-37.5 27.1-70.4 72zm-1616-7.52c-19.1-53.4-60-67.8-60-67.8l-13.9 93.8zm1493 13.4c43.2-57.6 172-178 367-230l-1.52-25.1c-43-12.2-100-21.2-216 44.8-132 81.6-212 193-212 193zm-1592-106s-53.4-30.9-110-45.2c0 0-16.4 53-23.2 124l121 30.3zm201 58.8c-124-155-261-246-427-223 0 0 6.49 29.2-11.9 44.7 107 23.9 337 83.7 375 200zm1251 66.1c44.4-44.8 135-172 258-249 40.3-25 71-48 102-96 57-87 294-359 392-253 110-40.6 151-30.8 364 29.2 211 60 307 96 325 26s-49.3-93-166-108c-71-9-169-19-219-23-49-3-106-8-125-12-30-5-24.4-9.91 2.53-15.2 27-5.28 364 13.2 442 25.6 34.3-77.7-2.66-127-106-133-79-6-347 8.16-395 15.6s-32.3-8.24 2.57-21.6 377-42.9 460-23.4c46.4-107-40.8-152-111-144s-85.3 0.652-519 102c-138 33-166 30.8-201 3.81-60.5-42.2-146-38.4-144 37.8 2.13 76.1 86.4 153 214 102-30.4 25.8-36.5 47-66 53-41.7 8.57-63.8 32.2-103 49.9s-205-17-240 40.6c38.5 9.4 43.9 46.2 109 36-25.4 79.1-68 109-170 229-146 161-143 230-154 298 17.5 6.9 35.2 17.4 48.2 29.5zm405-49.6s-10.5-60.9-26-114c-53.8 25-87.5 56.3-87.5 56.3 10.4 36.6 13.7 76.5 13.7 76.5 22-4 99.8-18.5 99.8-18.5zm-1530 21.5c13.4-101-69.8-233-155-317s-169-137-187-222c59 15.6 69.9-27 120-32.9-44.6-68-164-7.49-266-73.7-43-26-71-18.6-101-26.3-23.5-6.06-29-16.9-55.2-37.4 131 33.7 309-49.7 206-157-31-37-83.4-35.5-111-4.54s-72 26-359-40c-205-48-281-61-353-63-113-2-152 12.8-129 146 103-29.1 422 1.92 463 17.9 36 14-2.51 14.4-46.2 11.3-79-5.5-224-13.3-319-7.26-112 8-147 23.9-145 148 105-37.4 493-51.1 493-34.1 0.808 8.04-47.7 16.2-122 20-218 7.88-362 41-384 52-47 24-58 93-18 111 34 16 99.3 0.563 321-52.2s234-94.1 348-37.2c129-109 351 219 383 256 32 36.6 36.1 66.7 95.2 92.5 137 59.9 234 229 298 256 10.4 4.29 11.1-0.284 23.6-6.16zm-501-28.2c7.46-81.9 22.2-133 22.2-133-49-17-97.3-18.9-97.3-18.9-21 65.2-30.9 127-30.9 127 52 12 106 25.4 106 25.4zm2182-22.2s-21.3-87.2-35.3-139l-101 35.6c15.3 59.1 26.1 124 26.1 124zm-757-65.2-65.9-17.3-14.5 55.9c17.4 1.51 64 27 64 27zm-1547-62.4s-82.3 16.6-135 41.2l-9.01 48.9 114 24.4s14.8-69.6 29.6-115zm870 104c-5.68-29.7-28-84.4-28-84.4l-73.9 24.3 20.7 72.5s55.6-21.3 81.2-12.4zm1575-10.6-19.2-67.8c-29-9-104-36.5-111-39.5l31.9 131zm43.2-8.24 84.8-21.6-97.7-22.6zm-2678-3.05 8.42-32.9-78.5 20.3zm1779-117-75.2-26.6-23.6 74.3 67.3 19.6zm-760 21.7-24.8-60.8-75 24.5 27.4 61.2zm830-145-75.4-33.5-58 102 76.4 28zm-873 56c-7.87-22.4-45.9-77.7-66.2-94.1l-62.5 23.6s44.5 69.8 59.8 95.4zm1487-31.6c11.2-26.7-95.6-74.7-149 35.8 60.4-13.3 100-13.1 134 0.957zm-2215-23.2c1.33 17 8.18 30.5 7.14 47.4 43.4-17 101-6.87 139 0.96-61.1-121-131-98.5-147-48.4zm1110-112c113 0 213 3.47 350 111l26.8-42.7c-127-99.4-274-115-377-115s-224 3.4-390 127c9.17 13.6 17.9 25.4 26.3 41.9 124-101 251-122 364-122zm1151 58.4c10.2-28.6-80.1-56.3-117 15.3 40.7-7.98 72.4 3.54 90 29.8zm-1620-12.3-47.5-49.4-54.2 17.9 39.6 55.4zm1009-10.5-70.7-31.5-35.1 44.8 74.7 33zm-1594 2.72c-43.8-80.1-101-36.2-104-12.9 9.45 16 22.1 34 33.2 58.8 3.01-20.5 33.4-53 71.2-45.9zm1054-123c143 0 278 34.8 396 122l26.1-36.8c-232-176-605-199-862 21.9 9.23 10.8 15.5 16.5 25 28.9 147-107 272-136 415-136zm611 22.8-57.8-22.7-57.1 62.1 64 28.5zm592 53.6c9.6-31.7-64.3-59.2-105 11.6 31.8-7.31 62.9 3.23 72.4 28.1zm-2325-30.2c-42.2-50.9-75-33.1-95.2-13.7 18.6 20.2 29.7 37.4 41.3 52.9 8.23-20.3 28.9-39 53.9-39.2zm582 8.66-42.8-55.1-47 19.2 40.8 55.2zm55.2-111 121 17.4 28-105 105 44.5 56.4-106s64.8 44 88.6 72c9.6-42.3 81-115 81-115s69.7 67.4 81.4 111c25.8-37.1 78.2-73.9 78.2-73.9l54.5 106 106-46.6 33.9 94.4 115-17s6.55 89.6 6.58 104c21.4-16.4 148-163 148-163s-120-68-152-88c-42-26-72-37-98-37-21 0-57-9-79-21-57-28-260-101-284-101-27 0-174 55-254 96-36 19-91 39-122 45-39 8-81 29-144 71-48 33-87.5 54.5-101 61.5 32.3 41.2 98.5 123 120 162-4.56-39.7 11.5-111 11.5-111zm21.9 141c24-30.2 58.8-53.8 102-81.5-13.3-22.1-95.1-23.2-95.1-23.2s-11 77.8-6.46 105zm903-25.2c3.47-64.1-2.62-97.8-2.62-97.8s-91.1-0.692-93 33.6c28.4 14.6 65.7 36.2 95.6 64.2zm855-72c-33.8-28.8-73.7-9.88-122 27.9 31.2 2.54 43 13.3 56.1 31.8 23.2-26.1 34.5-35.2 66.1-59.7zm-2488-1.86c-36.7-38.4-102-57.1-117-29.3 28.3 18.5 43.8 30.6 71.5 55 9.66-14.5 23.5-26.3 45.8-25.7zm3320-57.7c-30.5 13.2-68.6 5.89-97.2 0.391 26 24.6 38.2 50.3 27.1 92.1 36.3-16 65.5-64.8 70.1-92.5zm-4276-36.6c6.31 45.4 48.9 84 73.9 104 0.111-39.9 9.99-72.4 38.5-97.2-53.9 1.83-85.4 5.59-112-6.96zm1915 58.8c-1.71-28.7-80.5-54-80.5-54s-28.7 73.1-15.4 89.9c31.2-13.9 52.3-22.5 95.8-35.9zm532-59.4s-83.3 23.9-84.7 51.1c34.4 8.84 71.6 23 99.3 37.6 18.1-26.6-14.6-88.8-14.6-88.8zm-396 30.9c-11.1-57.2-64-80.4-64-80.4s-52.5 68.3-36.1 98.9c27-8.44 76.4-15.2 100-18.5zm278 11.7c17.3-25.9-33.4-96.9-33.4-96.9s-52.6 30-53.2 81.3c31.5 3.61 63.9 10.4 86.6 15.6zm-125-18.2c2.3-60.2-59.8-118-59.8-118s-60.4 55.5-55.2 121c33.7-3.94 84.2-4.33 115-2.81zm1939-25.5c85-15.4 107-91 117-157-29.5 31.9-110 33.7-139 31.5 29.4 22.2 40.2 81.7 22.8 126zm-3988-137c-43.3 0.808-109-27.6-133-51-0.879 42.8 10.9 151 112 157 1-31.7-0.929-70.1 20.7-106zm1521 3.69c-69-148-193-180-303-218-74-24-312-69.9-394-104 40.7 16.9 118 44.1 209 76.1 153 53.4 296 85.3 447 271zm1423-254c280-88 369-127 404-206 35.3-79.8-28.5-155-93.4-154s-124 41.4-92.5 110c12.4 25.3 20 22 26 7 10-27 25-22 25 8 0 34-41.4 82.2-96 93-21 5-93 15-158 21-66 7-152 20-193 31-142 36-324 121-409 293 16.6 1.36 49.5 2.75 82.5 19.2 89.6-156 213-216 398-259 184-42 237-57 304-82 65-23 79-24 66-3-13 22-108 57-225 85-290 68-417 107-512 275l53.3 32.4c78.3-146 246-218 419-272zm-1313 213c-52.9-132-181-198-296-258-88-44-155-60-333-80-180-19-238-53.8-237-113 0.753-40 13.9-36.3 21.7-3.89 0 0 13.6 30.3 33.7 2.49s25-56.2-3.6-90.6c-48.7-59.7-197-0.255-190 105s174 147 198 158c-49.1-32.6-56.3-68.4-19.3-42.4 29 19 148 43.8 267 68.8 130 27 412 96.8 481 279 19.4-9.88 59.5-21.2 76.7-24.6zm87.7-29.7c-48.1-143-238-258-391-320-122-49-185-81-217-112-53-49-31-56 37-13 25 16 83 44 128 62 172 67.5 381 169 476 366l41-19.4c-33.5-143-155-241-280-312-37-20-120-45.4-193-65.4-72-19-116-30.3-160-56.7-43.3-26.4-76.8-67.9-76.8-101 0-28 8-29 26-5 13 16 25 7.09 34-7 42.7-66.2-47-137-134-96-66 32-86 112-43 176 36 53 104 98 292 193 96 48 346 160 407 331zm2226 36.8c55.1-3.84 113-140 87.8-193-11 16.5-56.3 58.1-105 61.2 29 26.9 40.5 91.4 16.9 132zm-1622-26.6c86.3-193 318-284 418-333 280-138 337-200 286-307-28-60-136-83-176-37-27 30-30 68.1-9 94.1 20 24 17.8 7.29 35-7.14 15-16.8 27 26.5 8.2 56.1-18.8 29.6-32.2 58.9-214 104-155 39-238 84-334 179-100 100-129 173-133 200l46.9 19.1c18.2-75.4 134-196 206-242 63-40 311-125 383-177 48-28 51.9-29.1 53-11 0.924 15.2-37 48-189 111-188 79-308 119-421 332zm-2284-127c-24.4-7.27-79.2-31.2-104-66.2-7.78 69.3 9.21 146 89 197-7.48-33.2-3.1-115 15-131zm1852 41.1c-60.9-146-133-199-319-322-155-102-220-169-219-181 1.49-24.3 69.7 26.7 84 37 39 30 126 91 193 136 109 66 238 163 291 306-41.1-270-233-353-394-435-163-79.1-194-113-192-171 13.5-59.3 35 26.9 59.8-1.26 24.8-28.1 34.1-43 14.4-85.9-29-56-114-70-165-26-17 14-36 43-42 65-25 82 33 149 266 309 216 149 325 265 355 396zm627-364c223-154 291-233 266-314-6-22-25-51-42-65-73-62-200-2-169 79 13 33 37 42 54 20 17-24 30-4 21 32-14 58-45 83-189 153-244 118-367 216-387 429 101-218 317-323 346-342 77-48 152-97 167-109 35-28 48-16 22 20-21 27-40 41-245 175-64 42-197 135-260 286l68.2 24.4c29.6-111 189-278 348-388zm546 337c-27.5 8.94-45.3 17.4-71.6 42.9 19.6-5.69 52.3 4.16 66.1 14.4-2.77-19.7-1.52-40.7 5.54-57.3zm-2100 28.9c-12.6-18.3-44.6-42.9-69.6-52.3 4.14 28.3 6.75 34.5 0.39 65 13.4-18.5 43.9-14.2 69.3-12.7zm993-30.5c26.3-5 24.9-47.7 24.9-330 0-214 1.5-311 12-311s18 74 18 311c0 227-6.26 328 19 329 3 0.132 21-87 40-193 45-252 51-401 22-545-24-116-99-328-112-315s-85 239-105 328c-28 132-23 269 20 470 18.3 68.3 34.8 178 61.1 256zm-107-305c-10-52-16-62-71-109-100-86-167-149-167-158 0-19 24-6 117 66 53 41 100 72 100 72l-3-34c-6.11-16.2-50.8-49.5-81.3-67.1s-156-126-169-196c-7-33 9-41 25-12 13 22 50.2 12 59.3-26.4 9.14-38.4-9.33-70.4-50.5-90.3-41.1-19.8-127 10.7-148 89.7-26 96 21 170 234 373 88 85 132 122 171 177-4.56-23.9-9.97-54.1-17-85.1zm454-108c229-223 259-281 206-388-38-74-108-68.8-146-47.3-37.9 21.6-48.6 72.3-24.6 99.3 20 22 39 23 47 3 11-29 29-16 22 16-14 71-130 181-238 227-24 10-28 17-28 52v41l88-66c125-94 162-119 168-112 11 10-69 88-163 158-52 39-98 80-102 92-9.55 31.5-14.9 70-18.5 100 43.4-48.8 92.5-81.1 190-175zm-891 85.1c-79.9-51.1-199-153-223-191 0.912 37.5-20 73.4-52.1 84.3 46.8 61.8 149 77.5 275 107zm1422-93.5c-37.4-24.4-46.6-57.5-42.2-95.5-70.1 82.5-200 175-200 181 0 0 204-39.8 242-85.4zm-1389-204c-12.9 43-49.4 66.9-64.8 59 3.68 29.8 111 81 193 109-42.8-50.9-97.4-105-128-168zm1153 59.7c-24.6-6.1-39.7-20.2-53.5-50.3-35.4 51.1-90.8 122-131 157 40.6-21 152-57.6 184-107zm-1853 2284c4.73-28 13.9-56.4 32.3-84.4l-52.5 10.7zm131-275-39.1 6.25 1.09 53.8zm136-163-33.6 3.04 1.09 28.6zm272-236-27-7.31-8.87 23.4c15.2-13.4 24-4.04 35.9-16.1zm-55.7-60.5-19.3 5.27 18.3 5.3zm1899 471-37-9.36c26.7 25.3 29 52.4 29 52.4zm-138-167-26.5-2.98c12.3 5.28 24.1 22.1 24.1 22.1zm433-12.1-54.6-20.9-1.54 18.1zm486-3.35c-0.186-23.3-27.1-71.8-27.1-71.8l1.05 71.8zm-292 610-46.9-1.29-15.1 29.8zm-775-888-23.2 2.39 24.5 7.72z"/><path fill="#3d9970" d="m2940 3850c0-13 7-20 20-20s20 7 20 20-7 20-20 20-20-7-20-20z"/><path fill="#3d9970" d="m3670 3850c0-13 7-20 20-20s20 7 20 20-7 20-20 20-20-7-20-20z"/><path fill="#3d9970" d="m3231 4300c0-50.9 35.1-89.7 94.3-90s94.3 38.3 94.3 90-39.7 90-94.3 90-94.3-39.1-94.3-90zm159 0c0-35.4-23.3-60-64.3-60s-64.3 27.8-64.3 60 24 60 64.3 60 64.3-24.6 64.3-60z"/><path fill="#3d9970" d="m3231 2957c0-164 236-163 236 0s-236 164-236 0zm204 0c0-119-175-120-175 0s175 119 175 0z"/><path fill="#3d9970" d="m3348 2895c78.3 0 79.6 123 0 123s-78.3-123 0-123zm0 23.3c-49.6 0-47.1 74.5 0 74.5s49.6-74.5 0-74.5z"/></g></svg>
