<svg id="Layer_1" data-name="Layer 1" xmlns="http://www.w3.org/2000/svg" viewBox="0 0 180 180"><defs><style>.cls-1{fill:#703694;}.cls-2{fill:none;}.cls-3{fill:#fff;}</style></defs><title>KPH LOGO2</title><circle class="cls-1" cx="59.04" cy="73.23" r="44.25"/><path class="cls-2" d="M46.45,92.2H65.69V75.11H43.25A54.6,54.6,0,0,0,46.45,92.2Z"/><path class="cls-2" d="M50.5,100.39c4.15,6.41,9.49,10.22,15.19,10.9V95.94H48A38.86,38.86,0,0,0,50.5,100.39Z"/><path class="cls-2" d="M43.25,71.37H65.69V54.27H46.45A54.67,54.67,0,0,0,43.25,71.37Z"/><path class="cls-2" d="M50.5,46.09A38.72,38.72,0,0,0,48,50.53H65.69V35.18C60,35.87,54.65,39.68,50.5,46.09Z"/><path class="cls-2" d="M137.58,104.74a3.34,3.34,0,1,0-3.34-3.33A3.33,3.33,0,0,0,137.58,104.74Z"/><path class="cls-2" d="M42.61,95.94H34.52a40.36,40.36,0,0,0,16.7,13.92,37.28,37.28,0,0,1-4.34-5.52A46.62,46.62,0,0,1,42.61,95.94Z"/><path class="cls-2" d="M38.54,75.11h-11A39.68,39.68,0,0,0,32.23,92.2H41.3A63.4,63.4,0,0,1,38.54,75.11Z"/><path class="cls-2" d="M145.79,87a3.34,3.34,0,1,0-3.33-3.33A3.34,3.34,0,0,0,145.79,87Z"/><path class="cls-2" d="M46.88,42.13a36.67,36.67,0,0,1,4.34-5.51,40.34,40.34,0,0,0-16.7,13.91h8.09A46.62,46.62,0,0,1,46.88,42.13Z"/><path class="cls-2" d="M41.3,54.27H32.23a39.73,39.73,0,0,0-4.73,17.1h11A63.53,63.53,0,0,1,41.3,54.27Z"/><path class="cls-2" d="M69.43,35.18V50.53H87.09a38.77,38.77,0,0,0-2.48-4.44C80.46,39.68,75.13,35.87,69.43,35.18Z"/><path class="cls-2" d="M93.82,54.27a61.5,61.5,0,0,1,1.89,8h10.42a39.76,39.76,0,0,0-3.25-8Z"/><path class="cls-2" d="M83.9,36.62a36.63,36.63,0,0,1,4.33,5.51,47.31,47.31,0,0,1,4.28,8.4h8.08A40.31,40.31,0,0,0,83.9,36.62Z"/><path class="cls-2" d="M129.87,76.57a3.34,3.34,0,1,0-3.33-3.33A3.34,3.34,0,0,0,129.87,76.57Z"/><path class="cls-2" d="M87.09,95.94H69.43v15.35c5.7-.68,11-4.49,15.18-10.9A38.91,38.91,0,0,0,87.09,95.94Z"/><path class="cls-2" d="M83.9,109.86a40.33,40.33,0,0,0,16.69-13.92H92.51a47.31,47.31,0,0,1-4.28,8.4A37.24,37.24,0,0,1,83.9,109.86Z"/><path class="cls-2" d="M69.43,92.2H88.66a54.32,54.32,0,0,0,3.21-17.09H69.43Z"/><path class="cls-2" d="M46.45,92.2H65.69V75.11H43.25A54.6,54.6,0,0,0,46.45,92.2Z"/><path class="cls-2" d="M50.5,100.39c4.15,6.41,9.49,10.22,15.19,10.9V95.94H48A38.86,38.86,0,0,0,50.5,100.39Z"/><path class="cls-2" d="M43.25,71.37H65.69V54.27H46.45A54.67,54.67,0,0,0,43.25,71.37Z"/><path class="cls-2" d="M50.5,46.09A38.72,38.72,0,0,0,48,50.53H65.69V35.18C60,35.87,54.65,39.68,50.5,46.09Z"/><path class="cls-2" d="M42.61,95.94H34.52a40.36,40.36,0,0,0,16.7,13.92,37.28,37.28,0,0,1-4.34-5.52A46.62,46.62,0,0,1,42.61,95.94Z"/><path class="cls-2" d="M38.54,75.11h-11A39.68,39.68,0,0,0,32.23,92.2H41.3A63.4,63.4,0,0,1,38.54,75.11Z"/><path class="cls-2" d="M137.58,104.74a3.34,3.34,0,1,0-3.34-3.33A3.33,3.33,0,0,0,137.58,104.74Z"/><path class="cls-2" d="M141.1,55.74a3.34,3.34,0,1,0-3.33-3.34A3.35,3.35,0,0,0,141.1,55.74Z"/><path class="cls-2" d="M46.88,42.13a36.67,36.67,0,0,1,4.34-5.51,40.34,40.34,0,0,0-16.7,13.91h8.09A46.62,46.62,0,0,1,46.88,42.13Z"/><path class="cls-2" d="M41.3,54.27H32.23a39.73,39.73,0,0,0-4.73,17.1h11A63.53,63.53,0,0,1,41.3,54.27Z"/><path class="cls-2" d="M83.9,36.62a36.63,36.63,0,0,1,4.33,5.51,47.31,47.31,0,0,1,4.28,8.4h8.08A40.31,40.31,0,0,0,83.9,36.62Z"/><path class="cls-2" d="M93.82,54.27a61.5,61.5,0,0,1,1.89,8h10.42a39.76,39.76,0,0,0-3.25-8Z"/><path class="cls-2" d="M159.18,60.79a3.34,3.34,0,1,0,3.34,3.33A3.33,3.33,0,0,0,159.18,60.79Z"/><path class="cls-2" d="M145.79,87a3.34,3.34,0,1,0-3.33-3.33A3.34,3.34,0,0,0,145.79,87Z"/><path class="cls-2" d="M69.43,35.18V50.53H87.09a38.77,38.77,0,0,0-2.48-4.44C80.46,39.68,75.13,35.87,69.43,35.18Z"/><path class="cls-2" d="M69.43,92.2H88.66a54.32,54.32,0,0,0,3.21-17.09H69.43Z"/><circle class="cls-2" cx="129.87" cy="73.24" r="3.34"/><path class="cls-2" d="M83.9,109.86a40.33,40.33,0,0,0,16.69-13.92H92.51a47.31,47.31,0,0,1-4.28,8.4A37.24,37.24,0,0,1,83.9,109.86Z"/><path class="cls-2" d="M87.09,95.94H69.43v15.35c5.7-.68,11-4.49,15.18-10.9A38.91,38.91,0,0,0,87.09,95.94Z"/><path class="cls-3" d="M159.18,58.1a6,6,0,0,0-5.73,4.15h-43a43.91,43.91,0,0,0-2.9-8h27.84a6,6,0,1,0,0-3.74H105.53a44.24,44.24,0,0,0-76,45.34v.07h0a44.2,44.2,0,0,0,70.08,7.73H132a6,6,0,1,0-.26-3.74h-28.9a44.55,44.55,0,0,0,4.71-7.73H93.82a59.08,59.08,0,0,0,1.65-6.67h44.59a6,6,0,1,0,0-3.74h-44a66.62,66.62,0,0,0,.52-6.68h27.57a6,6,0,1,0,0-3.74H69.43V54.27H88.66a51.41,51.41,0,0,1,2.21,8c.23,1.23.43,2.48.58,3.74h62a6,6,0,1,0,5.73-7.89Zm-18.08-9a3.34,3.34,0,1,1-3.33,3.34A3.35,3.35,0,0,1,141.1,49.06ZM51.22,36.62a36.67,36.67,0,0,0-4.34,5.51,46.62,46.62,0,0,0-4.27,8.4H34.52A40.34,40.34,0,0,1,51.22,36.62Zm-19,17.65H41.3a63.53,63.53,0,0,0-2.76,17.1h-11A39.73,39.73,0,0,1,32.23,54.27ZM27.5,75.11h11A63.4,63.4,0,0,0,41.3,92.2H32.23A39.68,39.68,0,0,1,27.5,75.11Zm7,20.83h8.09a46.62,46.62,0,0,0,4.27,8.4,37.28,37.28,0,0,0,4.34,5.52A40.36,40.36,0,0,1,34.52,95.94Zm31.17,15.35c-5.7-.68-11-4.49-15.19-10.9A38.86,38.86,0,0,1,48,95.94H65.69Zm0-19.09H46.45a54.6,54.6,0,0,1-3.2-17.09H65.69Zm0-20.83H43.25a54.67,54.67,0,0,1,3.2-17.1H65.69Zm0-20.84H48a38.72,38.72,0,0,1,2.47-4.44C54.65,39.68,60,35.87,65.69,35.18Zm71.89,47.54a3.34,3.34,0,1,1-3.34,3.34A3.34,3.34,0,0,1,137.58,98.07Zm8.21-17.75a3.34,3.34,0,1,1-3.33,3.34A3.35,3.35,0,0,1,145.79,80.32ZM129.87,69.9a3.34,3.34,0,1,1-3.33,3.34A3.35,3.35,0,0,1,129.87,69.9ZM69.43,111.29V95.94H87.09a38.91,38.91,0,0,1-2.48,4.45C80.46,106.8,75.13,110.61,69.43,111.29ZM92.51,95.94h8.08A40.33,40.33,0,0,1,83.9,109.86a37.24,37.24,0,0,0,4.33-5.52A47.31,47.31,0,0,0,92.51,95.94Zm-.64-20.83A54.32,54.32,0,0,1,88.66,92.2H69.43V75.11ZM69.43,50.53V35.18c5.7.69,11,4.5,15.18,10.91a38.77,38.77,0,0,1,2.48,4.44Zm18.8-8.4a36.63,36.63,0,0,0-4.33-5.51,40.31,40.31,0,0,1,16.69,13.91H92.51A47.31,47.31,0,0,0,88.23,42.13Zm7.48,20.12a61.5,61.5,0,0,0-1.89-8h9.06a39.76,39.76,0,0,1,3.25,8Zm63.47,5.21a3.34,3.34,0,1,1,3.34-3.34A3.34,3.34,0,0,1,159.18,67.46Z"/><path class="cls-3" d="M135.43,146.22v9.15c0,.24-.08.35-.32.33H120c-.7,0-.64.06-.64-.63v-8.64c0-.38,0-.39.37-.39h4.57c.37,0,.38,0,.38.42,0,.94,0,1.89,0,2.83,0,.45,0,.45.46.45h4.47c.44,0,.45,0,.45-.46v-6c0-.51,0-.51-.51-.51H120c-.71,0-.63,0-.63-.64V124.52c0-.7-.06-.63.64-.63H134.8c.7,0,.63-.06.63.64v8.64c0,.39,0,.39-.41.39h-4.47c-.43,0-.44,0-.44-.46v-2.78c0-.46,0-.47-.45-.47h-4.53c-.39,0-.4,0-.4.41q0,3,0,6.06c0,.42,0,.42.44.42h9.67c.63,0,.59-.05.59.57Z"/><path class="cls-1" d="M58.48,139.79c.73.88,1.42,1.72,2.14,2.55a1.65,1.65,0,0,1,.44,1.15c0,3.85,0,7.71,0,11.57,0,.1,0,.2,0,.3s-.07.34-.32.34H56c-.25,0-.34-.1-.33-.33s0-.55,0-.83c0-2.69,0-5.38,0-8.07a2,2,0,0,0-.31-1c-.29-.51-.61-1-.87-1.55a7.06,7.06,0,0,1-.54-1c0-.13-.15-.13-.25-.13h-3.5c-.19,0-.28.08-.27.28v12.13c0,.47,0,.47-.5.47H45c-.39,0-.39,0-.4-.41a2.26,2.26,0,0,1,0-.26q0-15.24,0-30.49c0-.76-.07-.7.68-.7h4.43a.22.22,0,0,1,.25.25c0,.13,0,.27,0,.41V136c0,.12,0,.24,0,.36,0,.38,0,.39.41.39h3.19c.17,0,.35,0,.45-.16a12,12,0,0,1,1.39-1.7,1.18,1.18,0,0,0,.3-.83q0-4.72,0-9.46c0-.81-.08-.73.76-.73H60.8a.21.21,0,0,1,.22.23c0,.12,0,.24,0,.36,0,4,0,7.92,0,11.88a1.09,1.09,0,0,1-.28.79C60,138,59.25,138.88,58.48,139.79Z"/><path class="cls-1" d="M69.79,155.63a.81.81,0,0,1-.46.07H65c-.52,0-.53,0-.53-.54v-30.7c0-.13,0-.27,0-.41s.09-.28.28-.27.24,0,.36,0H80.29c.7,0,.63-.07.63.64v19c0,.69.07.62-.64.62H71.74c-.37,0-.38,0-.38-.36v-5.35c0-.36,0-.37.39-.37H75.3c.17,0,.25-.08.24-.25s0-.21,0-.31v-7c0-.1,0-.21,0-.31s-.06-.26-.24-.25H70.47c-.75,0-.75,0-.75.74v24.32A1.93,1.93,0,0,0,69.79,155.63Z"/><rect class="cls-1" x="93.92" y="123.98" width="5.51" height="31.64"/><rect class="cls-1" x="83.72" y="123.87" width="5.51" height="31.64"/><rect class="cls-1" x="92.92" y="131.35" width="6.1" height="16.9" transform="translate(235.77 43.84) rotate(90)"/><path class="cls-3" d="M111.2,124v10.28a6.1,6.1,0,0,1,0,10.59v10.77h5.51V124Z"/><path class="cls-1" d="M108.16,134.4a5.15,5.15,0,1,0,5.15,5.15A5.16,5.16,0,0,0,108.16,134.4Zm0,7.86a2.71,2.71,0,1,1,2.71-2.71A2.71,2.71,0,0,1,108.16,142.26Z"/></svg>