<svg id="Layer_1" data-name="Layer 1" xmlns="http://www.w3.org/2000/svg" viewBox="0 0 183.41 109.88"><defs><style>.cls-1,.cls-3,.cls-5{fill:none;}.cls-2,.cls-4{fill:#fff;}.cls-2{stroke:#f3712a;stroke-width:0.93px;}.cls-3,.cls-5{stroke:#fff;stroke-width:2.8px;}.cls-5{stroke-linejoin:round;}.cls-6{fill:#f3712a;}</style></defs><title>KPH LOGO</title><path class="cls-1" d="M39.46,77.66h23V57.2H35.63A65.1,65.1,0,0,0,39.46,77.66Z"/><path class="cls-1" d="M44.31,87.45c5,7.67,11.35,12.23,18.17,13V82.13H41.35A45.47,45.47,0,0,0,44.31,87.45Z"/><path class="cls-1" d="M35.63,52.72H62.48V32.26h-23A65.1,65.1,0,0,0,35.63,52.72Z"/><path class="cls-1" d="M44.31,22.47a45.47,45.47,0,0,0-3,5.32H62.48V9.42C55.66,10.24,49.27,14.8,44.31,22.47Z"/><path class="cls-1" d="M148.51,92.66a4,4,0,1,0-4-4A4,4,0,0,0,148.51,92.66Z"/><path class="cls-1" d="M34.86,82.13H25.19a48.19,48.19,0,0,0,20,16.65A44.38,44.38,0,0,1,40,92.19,56.54,56.54,0,0,1,34.86,82.13Z"/><path class="cls-1" d="M30,57.2H16.78a47.71,47.71,0,0,0,5.66,20.46H33.29A76.49,76.49,0,0,1,30,57.2Z"/><path class="cls-1" d="M158.34,71.42a4,4,0,1,0-4-4A4,4,0,0,0,158.34,71.42Z"/><path class="cls-1" d="M40,17.74a44,44,0,0,1,5.18-6.6,48.19,48.19,0,0,0-20,16.65h9.67A56.11,56.11,0,0,1,40,17.74Z"/><path class="cls-1" d="M33.29,32.26H22.44a47.71,47.71,0,0,0-5.66,20.46H30A76.49,76.49,0,0,1,33.29,32.26Z"/><path class="cls-1" d="M67,9.42V27.79H88.09a47,47,0,0,0-3-5.32C80.16,14.8,73.78,10.24,67,9.42Z"/><path class="cls-1" d="M96.14,32.26a71.26,71.26,0,0,1,2.26,9.56h12.48A48.16,48.16,0,0,0,107,32.26Z"/><path class="cls-1" d="M84.27,11.14a44,44,0,0,1,5.19,6.6,56.74,56.74,0,0,1,5.11,10.05h9.68A48.22,48.22,0,0,0,84.27,11.14Z"/><path class="cls-1" d="M139.29,59a4,4,0,1,0-4-4A4,4,0,0,0,139.29,59Z"/><path class="cls-1" d="M88.09,82.13H67V100.5c6.82-.82,13.2-5.38,18.17-13A47,47,0,0,0,88.09,82.13Z"/><path class="cls-1" d="M84.27,98.78a48.22,48.22,0,0,0,20-16.65H94.57a57.18,57.18,0,0,1-5.11,10.06A44.42,44.42,0,0,1,84.27,98.78Z"/><path class="cls-1" d="M67,77.66H90A65.39,65.39,0,0,0,93.81,57.2H67Z"/><path class="cls-1" d="M39.46,77.66h23V57.2H35.63A65.1,65.1,0,0,0,39.46,77.66Z"/><path class="cls-1" d="M44.31,87.45c5,7.67,11.35,12.23,18.17,13V82.13H41.35A45.47,45.47,0,0,0,44.31,87.45Z"/><path class="cls-1" d="M35.63,52.72H62.48V32.26h-23A65.1,65.1,0,0,0,35.63,52.72Z"/><path class="cls-1" d="M44.31,22.47a45.47,45.47,0,0,0-3,5.32H62.48V9.42C55.66,10.24,49.27,14.8,44.31,22.47Z"/><path class="cls-1" d="M34.86,82.13H25.19a48.19,48.19,0,0,0,20,16.65A44.38,44.38,0,0,1,40,92.19,56.54,56.54,0,0,1,34.86,82.13Z"/><path class="cls-1" d="M30,57.2H16.78a47.71,47.71,0,0,0,5.66,20.46H33.29A76.49,76.49,0,0,1,30,57.2Z"/><path class="cls-1" d="M148.51,92.66a4,4,0,1,0-4-4A4,4,0,0,0,148.51,92.66Z"/><path class="cls-1" d="M152.73,34a4,4,0,1,0-4-4A4,4,0,0,0,152.73,34Z"/><path class="cls-1" d="M40,17.74a44,44,0,0,1,5.18-6.6,48.19,48.19,0,0,0-20,16.65h9.67A56.11,56.11,0,0,1,40,17.74Z"/><path class="cls-1" d="M33.29,32.26H22.44a47.71,47.71,0,0,0-5.66,20.46H30A76.49,76.49,0,0,1,33.29,32.26Z"/><path class="cls-1" d="M84.27,11.14a44,44,0,0,1,5.19,6.6,56.74,56.74,0,0,1,5.11,10.05h9.68A48.22,48.22,0,0,0,84.27,11.14Z"/><path class="cls-1" d="M96.14,32.26a71.26,71.26,0,0,1,2.26,9.56h12.48A48.16,48.16,0,0,0,107,32.26Z"/><path class="cls-1" d="M174.36,40.06a4,4,0,1,0,4,4A4,4,0,0,0,174.36,40.06Z"/><path class="cls-1" d="M158.34,71.42a4,4,0,1,0-4-4A4,4,0,0,0,158.34,71.42Z"/><path class="cls-1" d="M67,9.42V27.79H88.09a47,47,0,0,0-3-5.32C80.16,14.8,73.78,10.24,67,9.42Z"/><path class="cls-1" d="M67,77.66H90A65.39,65.39,0,0,0,93.81,57.2H67Z"/><circle class="cls-1" cx="139.29" cy="54.96" r="3.99"/><path class="cls-1" d="M84.27,98.78a48.22,48.22,0,0,0,20-16.65H94.57a57.18,57.18,0,0,1-5.11,10.06A44.42,44.42,0,0,1,84.27,98.78Z"/><path class="cls-1" d="M88.09,82.13H67V100.5c6.82-.82,13.2-5.38,18.17-13A47,47,0,0,0,88.09,82.13Z"/><path class="cls-2" d="M19.27,82.13h-.05v-.08A52.93,52.93,0,0,1,59.63,2.25C58,2.09,56.25,2,54.53,2a53,53,0,0,0,0,105.91c1.68,0,3.35-.09,5-.24A53,53,0,0,1,19.27,82.13Z"/><path class="cls-3" d="M98.4,41.82a71.26,71.26,0,0,0-2.26-9.56h6.25q-1.1-2.29-2.4-4.47H94.57a56.74,56.74,0,0,0-5.11-10,44,44,0,0,0-5.19-6.6h0a52.47,52.47,0,0,0-24.66-8.9,52.93,52.93,0,0,0-40.41,79.8v.08h.05a53,53,0,0,0,40.25,25.54A52.58,52.58,0,0,0,84.3,98.75a44,44,0,0,0,5.16-6.56,57.18,57.18,0,0,0,5.11-10.06H100c.87-1.44,1.67-2.94,2.4-4.47H96.14a68.57,68.57,0,0,0,2-8h7.28c.43-1.47.79-3,1.09-4.48H98.83a77.8,77.8,0,0,0,.61-8h8c0-.75.06-1.49.06-2.25s0-1.49-.06-2.23H67V32.26H90a61.3,61.3,0,0,1,2.63,9.56c.29,1.46.52,3,.71,4.47h13.45c-.25-1.51-.55-3-.93-4.47ZM45.16,11.14A44,44,0,0,0,40,17.74a56.11,56.11,0,0,0-5.12,10.05H25.19A48.25,48.25,0,0,1,45.16,11.14ZM22.44,32.26H33.29A76.49,76.49,0,0,0,30,52.72H16.78A47.71,47.71,0,0,1,22.44,32.26ZM16.78,57.2H30a76.49,76.49,0,0,0,3.3,20.46H22.44A47.71,47.71,0,0,1,16.78,57.2Zm8.41,24.93h9.67A56.54,56.54,0,0,0,40,92.19a44.38,44.38,0,0,0,5.18,6.59A48.25,48.25,0,0,1,25.19,82.13ZM62.48,100.5c-6.82-.82-13.21-5.38-18.17-13a45.47,45.47,0,0,1-3-5.32H62.48Zm0-22.84h-23A65.1,65.1,0,0,1,35.63,57.2H62.48Zm0-24.94H35.63a65.1,65.1,0,0,1,3.83-20.46h23Zm0-24.93H41.35a45.47,45.47,0,0,1,3-5.32c5-7.67,11.35-12.23,18.17-13ZM85.13,87.45c-5,7.67-11.35,12.23-18.17,13V82.13H88.09A47,47,0,0,1,85.13,87.45ZM93.81,57.2A65.39,65.39,0,0,1,90,77.66H67V57.2ZM67,27.79V9.42c6.82.82,13.2,5.38,18.17,13.05a47,47,0,0,1,3,5.32Z"/><path class="cls-4" d="M98.4,41.82a71.26,71.26,0,0,0-2.26-9.56h6.25q-1.1-2.29-2.4-4.47H94.57a56.74,56.74,0,0,0-5.11-10,44,44,0,0,0-5.19-6.6h0a52.47,52.47,0,0,0-24.66-8.9,52.93,52.93,0,0,0-40.41,79.8v.08h.05a53,53,0,0,0,40.25,25.54A52.58,52.58,0,0,0,84.3,98.75a44,44,0,0,0,5.16-6.56,57.18,57.18,0,0,0,5.11-10.06H100c.87-1.44,1.67-2.94,2.4-4.47H96.14a68.57,68.57,0,0,0,2-8h7.28c.43-1.47.79-3,1.09-4.48H98.83a77.8,77.8,0,0,0,.61-8h8c0-.75.06-1.49.06-2.25s0-1.49-.06-2.23H67V32.26H90a61.3,61.3,0,0,1,2.63,9.56c.29,1.46.52,3,.71,4.47h13.45c-.25-1.51-.55-3-.93-4.47ZM45.16,11.14A44,44,0,0,0,40,17.74a56.11,56.11,0,0,0-5.12,10.05H25.19A48.25,48.25,0,0,1,45.16,11.14ZM22.44,32.26H33.29A76.49,76.49,0,0,0,30,52.72H16.78A47.71,47.71,0,0,1,22.44,32.26ZM16.78,57.2H30a76.49,76.49,0,0,0,3.3,20.46H22.44A47.71,47.71,0,0,1,16.78,57.2Zm8.41,24.93h9.67A56.54,56.54,0,0,0,40,92.19a44.38,44.38,0,0,0,5.18,6.59A48.25,48.25,0,0,1,25.19,82.13ZM62.48,100.5c-6.82-.82-13.21-5.38-18.17-13a45.47,45.47,0,0,1-3-5.32H62.48Zm0-22.84h-23A65.1,65.1,0,0,1,35.63,57.2H62.48Zm0-24.94H35.63a65.1,65.1,0,0,1,3.83-20.46h23Zm0-24.93H41.35a45.47,45.47,0,0,1,3-5.32c5-7.67,11.35-12.23,18.17-13ZM85.13,87.45c-5,7.67-11.35,12.23-18.17,13V82.13H88.09A47,47,0,0,1,85.13,87.45ZM93.81,57.2A65.39,65.39,0,0,1,90,77.66H67V57.2ZM67,27.79V9.42c6.82.82,13.2,5.38,18.17,13.05a47,47,0,0,1,3,5.32Z"/><path class="cls-1" d="M110.88,41.82A48.16,48.16,0,0,0,107,32.26h-4.6a52.07,52.07,0,0,1,3.45,9.56Z"/><path class="cls-1" d="M100,27.79h4.26a48.28,48.28,0,0,0-20-16.64A53.21,53.21,0,0,1,100,27.79Z"/><path class="cls-1" d="M148.51,92.66a4,4,0,1,0-4-4A4,4,0,0,0,148.51,92.66Z"/><path class="cls-1" d="M104.25,82.13H100A53.08,53.08,0,0,1,84.3,98.75l0,0A48.22,48.22,0,0,0,104.25,82.13Z"/><circle class="cls-1" cx="139.29" cy="54.96" r="3.99"/><path class="cls-1" d="M158.34,71.42a4,4,0,1,0-4-4A4,4,0,0,0,158.34,71.42Z"/><path class="cls-1" d="M174.36,40.06a4,4,0,1,0,4,4A4,4,0,0,0,174.36,40.06Z"/><path class="cls-1" d="M152.73,34a4,4,0,1,0-4-4A4,4,0,0,0,152.73,34Z"/><path class="cls-4" d="M96.14,77.66h6.24a52.55,52.55,0,0,0,3-8H98.12A68.57,68.57,0,0,1,96.14,77.66Z"/><path class="cls-4" d="M98.83,65.19h7.66a52.53,52.53,0,0,0,.94-8h-8A77.8,77.8,0,0,1,98.83,65.19Z"/><path class="cls-4" d="M93.32,46.29c-.19-1.51-.42-3-.71-4.47A61.3,61.3,0,0,0,90,32.26H67V52.72h40.47a52.45,52.45,0,0,0-.66-6.43H93.32Z"/><path class="cls-4" d="M89.46,17.74a56.74,56.74,0,0,1,5.11,10.05H100a53.21,53.21,0,0,0-15.7-16.64h0A44,44,0,0,1,89.46,17.74Z"/><path class="cls-4" d="M98.4,41.82h7.44a52.07,52.07,0,0,0-3.45-9.56H96.14A71.26,71.26,0,0,1,98.4,41.82Z"/><path class="cls-4" d="M100,82.13H94.57a57.18,57.18,0,0,1-5.11,10.06,44,44,0,0,1-5.16,6.56A53.08,53.08,0,0,0,100,82.13Z"/><path class="cls-4" d="M44.31,22.47a45.47,45.47,0,0,0-3,5.32H62.48V9.42C55.66,10.24,49.27,14.8,44.31,22.47Z"/><path class="cls-4" d="M67,100.5c6.82-.82,13.2-5.38,18.17-13a47,47,0,0,0,3-5.32H67Z"/><path class="cls-4" d="M35.63,52.72H62.48V32.26h-23A65.1,65.1,0,0,0,35.63,52.72Z"/><path class="cls-4" d="M67,77.66H90A65.39,65.39,0,0,0,93.81,57.2H67Z"/><path class="cls-4" d="M39.46,77.66h23V57.2H35.63A65.1,65.1,0,0,0,39.46,77.66Z"/><path class="cls-4" d="M67,9.42V27.79H88.09a47,47,0,0,0-3-5.32C80.16,14.8,73.78,10.24,67,9.42Z"/><path class="cls-4" d="M30,57.2H16.78a47.71,47.71,0,0,0,5.66,20.46H33.29A76.49,76.49,0,0,1,30,57.2Z"/><path class="cls-4" d="M44.31,87.45c5,7.67,11.35,12.23,18.17,13V82.13H41.35A45.47,45.47,0,0,0,44.31,87.45Z"/><path class="cls-4" d="M40,17.74a44,44,0,0,1,5.18-6.6,48.25,48.25,0,0,0-20,16.65h9.67A56.11,56.11,0,0,1,40,17.74Z"/><path class="cls-4" d="M33.29,32.26H22.44a47.71,47.71,0,0,0-5.66,20.46H30A76.49,76.49,0,0,1,33.29,32.26Z"/><path class="cls-4" d="M34.86,82.13H25.19a48.25,48.25,0,0,0,20,16.65A44.38,44.38,0,0,1,40,92.19,56.54,56.54,0,0,1,34.86,82.13Z"/><path class="cls-5" d="M174.36,36.84a7.22,7.22,0,0,0-6.85,5H116a53.12,53.12,0,0,0-3.46-9.56h33.31a7.22,7.22,0,1,0,0-4.47H110.16A53,53,0,0,0,64.72,2c-1.72,0-3.41.09-5.09.25a52.47,52.47,0,0,1,24.66,8.9,48.28,48.28,0,0,1,20,16.64H100q1.31,2.17,2.4,4.47H107a48.16,48.16,0,0,1,3.89,9.56h-5c.38,1.46.68,3,.93,4.47h60.74a7.21,7.21,0,1,0,6.85-9.45ZM152.73,26a4,4,0,1,1-4,4A4,4,0,0,1,152.73,26Zm21.63,22a4,4,0,1,1,4-4A4,4,0,0,1,174.36,48.05Z"/><path class="cls-6" d="M174.36,36.84a7.22,7.22,0,0,0-6.85,5H116a53.12,53.12,0,0,0-3.46-9.56h33.31a7.22,7.22,0,1,0,0-4.47H110.16A53,53,0,0,0,64.72,2c-1.72,0-3.41.09-5.09.25a52.47,52.47,0,0,1,24.66,8.9,48.28,48.28,0,0,1,20,16.64H100q1.31,2.17,2.4,4.47H107a48.16,48.16,0,0,1,3.89,9.56h-5c.38,1.46.68,3,.93,4.47h60.74a7.21,7.21,0,1,0,6.85-9.45ZM152.73,26a4,4,0,1,1-4,4A4,4,0,0,1,152.73,26Zm21.63,22a4,4,0,1,1,4-4A4,4,0,0,1,174.36,48.05Z"/><path class="cls-5" d="M110.4,69.67h41.09a7.21,7.21,0,1,0,0-4.48h-45c-.3,1.52-.66,3-1.09,4.48Zm47.94-6.23a4,4,0,1,1-4,4A4,4,0,0,1,158.34,63.44Z"/><path class="cls-6" d="M110.4,69.67h41.09a7.21,7.21,0,1,0,0-4.48h-45c-.3,1.52-.66,3-1.09,4.48Zm47.94-6.23a4,4,0,1,1-4,4A4,4,0,0,1,158.34,63.44Z"/><path class="cls-5" d="M107.43,57.2h25a7.21,7.21,0,1,0,0-4.48h-25c0,.74.06,1.49.06,2.23S107.46,56.45,107.43,57.2ZM139.29,51a4,4,0,1,1-4,4A4,4,0,0,1,139.29,51Z"/><path class="cls-6" d="M107.43,57.2h25a7.21,7.21,0,1,0,0-4.48h-25c0,.74.06,1.49.06,2.23S107.46,56.45,107.43,57.2ZM139.29,51a4,4,0,1,1-4,4A4,4,0,0,1,139.29,51Z"/><path class="cls-5" d="M104.25,82.13a48.22,48.22,0,0,1-20,16.65l0,0a52.58,52.58,0,0,1-24.78,8.92c1.71.17,3.44.26,5.2.26a52.78,52.78,0,0,0,38.41-16.55h38.7a7.21,7.21,0,1,0-.31-4.47H106.93a52,52,0,0,0,3.23-4.78c.87-1.45,1.68-2.94,2.41-4.47H102.38c-.73,1.53-1.53,3-2.4,4.47Zm44.26,2.55a4,4,0,1,1-4,4A4,4,0,0,1,148.51,84.68Z"/><path class="cls-6" d="M104.25,82.13a48.22,48.22,0,0,1-20,16.65l0,0a52.58,52.58,0,0,1-24.78,8.92c1.71.17,3.44.26,5.2.26a52.78,52.78,0,0,0,38.41-16.55h38.7a7.21,7.21,0,1,0-.31-4.47H106.93a52,52,0,0,0,3.23-4.78c.87-1.45,1.68-2.94,2.41-4.47H102.38c-.73,1.53-1.53,3-2.4,4.47Zm44.26,2.55a4,4,0,1,1-4,4A4,4,0,0,1,148.51,84.68Z"/><path class="cls-6" d="M98.4,41.82a71.26,71.26,0,0,0-2.26-9.56h6.25q-1.1-2.29-2.4-4.47H94.57a56.74,56.74,0,0,0-5.11-10,44,44,0,0,0-5.19-6.6h0a52.47,52.47,0,0,0-24.66-8.9,52.93,52.93,0,0,0-40.41,79.8v.08h.05a53,53,0,0,0,40.25,25.54A52.58,52.58,0,0,0,84.3,98.75a44,44,0,0,0,5.16-6.56,57.18,57.18,0,0,0,5.11-10.06H100c.87-1.44,1.67-2.94,2.4-4.47H96.14a68.57,68.57,0,0,0,2-8h7.28c.43-1.47.79-3,1.09-4.48H98.83a77.8,77.8,0,0,0,.61-8h8c0-.75.06-1.49.06-2.25s0-1.49-.06-2.23H67V32.26H90a61.3,61.3,0,0,1,2.63,9.56c.29,1.46.52,3,.71,4.47h13.45c-.25-1.51-.55-3-.93-4.47ZM45.16,11.14A44,44,0,0,0,40,17.74a56.11,56.11,0,0,0-5.12,10.05H25.19A48.25,48.25,0,0,1,45.16,11.14ZM22.44,32.26H33.29A76.49,76.49,0,0,0,30,52.72H16.78A47.71,47.71,0,0,1,22.44,32.26ZM16.78,57.2H30a76.49,76.49,0,0,0,3.3,20.46H22.44A47.71,47.71,0,0,1,16.78,57.2Zm8.41,24.93h9.67A56.54,56.54,0,0,0,40,92.19a44.38,44.38,0,0,0,5.18,6.59A48.25,48.25,0,0,1,25.19,82.13ZM62.48,100.5c-6.82-.82-13.21-5.38-18.17-13a45.47,45.47,0,0,1-3-5.32H62.48Zm0-22.84h-23A65.1,65.1,0,0,1,35.63,57.2H62.48Zm0-24.94H35.63a65.1,65.1,0,0,1,3.83-20.46h23Zm0-24.93H41.35a45.47,45.47,0,0,1,3-5.32c5-7.67,11.35-12.23,18.17-13ZM85.13,87.45c-5,7.67-11.35,12.23-18.17,13V82.13H88.09A47,47,0,0,1,85.13,87.45ZM93.81,57.2A65.39,65.39,0,0,1,90,77.66H67V57.2ZM67,27.79V9.42c6.82.82,13.2,5.38,18.17,13.05a47,47,0,0,1,3,5.32Z"/></svg>