<svg id="Layer_1" data-name="Layer 1" xmlns="http://www.w3.org/2000/svg" viewBox="0 0 180 180"><defs><style>.cls-1,.cls-3,.cls-5{fill:none;}.cls-2,.cls-4{fill:#fff;}.cls-2{stroke:#f3712a;stroke-width:0.88px;}.cls-3,.cls-5{stroke:#fff;stroke-width:2.63px;}.cls-5{stroke-linejoin:round;}.cls-6{fill:#f3712a;}</style></defs><title>KPH LOGO</title><path class="cls-1" d="M41.15,111.39H62.73V92.22H37.56A60.94,60.94,0,0,0,41.15,111.39Z"/><path class="cls-1" d="M45.69,120.57c4.66,7.19,10.64,11.47,17,12.23V115.59H42.92A43.4,43.4,0,0,0,45.69,120.57Z"/><path class="cls-1" d="M37.56,88H62.73V68.84H41.15A61.06,61.06,0,0,0,37.56,88Z"/><path class="cls-1" d="M45.69,59.66a44.41,44.41,0,0,0-2.77,5H62.73V47.43C56.33,48.2,50.35,52.48,45.69,59.66Z"/><path class="cls-1" d="M143.37,125.46a3.75,3.75,0,1,0-3.75-3.74A3.75,3.75,0,0,0,143.37,125.46Z"/><path class="cls-1" d="M36.84,115.59H27.77A45.28,45.28,0,0,0,46.5,131.2,41.19,41.19,0,0,1,41.64,125,53.06,53.06,0,0,1,36.84,115.59Z"/><path class="cls-1" d="M32.28,92.22H19.89a44.68,44.68,0,0,0,5.31,19.17H35.37A71.2,71.2,0,0,1,32.28,92.22Z"/><path class="cls-1" d="M152.58,105.55a3.75,3.75,0,1,0-3.74-3.74A3.75,3.75,0,0,0,152.58,105.55Z"/><path class="cls-1" d="M41.64,55.23A41.19,41.19,0,0,1,46.5,49,45.28,45.28,0,0,0,27.77,64.65h9.07A52.72,52.72,0,0,1,41.64,55.23Z"/><path class="cls-1" d="M35.37,68.84H25.2A44.76,44.76,0,0,0,19.89,88H32.28A71.34,71.34,0,0,1,35.37,68.84Z"/><path class="cls-1" d="M66.92,47.43V64.65H86.73a44.41,44.41,0,0,0-2.77-5C79.3,52.48,73.32,48.2,66.92,47.43Z"/><path class="cls-1" d="M94.28,68.84a67.28,67.28,0,0,1,2.12,9h11.69a44.41,44.41,0,0,0-3.64-9Z"/><path class="cls-1" d="M83.16,49A41.8,41.8,0,0,1,88,55.23a52.07,52.07,0,0,1,4.8,9.42h9.07A45.32,45.32,0,0,0,83.16,49Z"/><path class="cls-1" d="M134.73,93.86A3.74,3.74,0,1,0,131,90.12,3.75,3.75,0,0,0,134.73,93.86Z"/><path class="cls-1" d="M86.73,115.59H66.92V132.8c6.4-.76,12.38-5,17-12.23A43.4,43.4,0,0,0,86.73,115.59Z"/><path class="cls-1" d="M83.16,131.19a45.22,45.22,0,0,0,18.72-15.6H92.81A52.4,52.4,0,0,1,88,125,41.18,41.18,0,0,1,83.16,131.19Z"/><path class="cls-1" d="M66.92,111.39H88.5a60.94,60.94,0,0,0,3.59-19.17H66.92Z"/><path class="cls-1" d="M41.15,111.39H62.73V92.22H37.56A60.94,60.94,0,0,0,41.15,111.39Z"/><path class="cls-1" d="M45.69,120.57c4.66,7.19,10.64,11.47,17,12.23V115.59H42.92A43.4,43.4,0,0,0,45.69,120.57Z"/><path class="cls-1" d="M37.56,88H62.73V68.84H41.15A61.06,61.06,0,0,0,37.56,88Z"/><path class="cls-1" d="M45.69,59.66a44.41,44.41,0,0,0-2.77,5H62.73V47.43C56.33,48.2,50.35,52.48,45.69,59.66Z"/><path class="cls-1" d="M36.84,115.59H27.77A45.28,45.28,0,0,0,46.5,131.2,41.19,41.19,0,0,1,41.64,125,53.06,53.06,0,0,1,36.84,115.59Z"/><path class="cls-1" d="M32.28,92.22H19.89a44.68,44.68,0,0,0,5.31,19.17H35.37A71.2,71.2,0,0,1,32.28,92.22Z"/><path class="cls-1" d="M143.37,125.46a3.75,3.75,0,1,0-3.75-3.74A3.75,3.75,0,0,0,143.37,125.46Z"/><path class="cls-1" d="M147.32,70.49a3.75,3.75,0,1,0-3.74-3.74A3.75,3.75,0,0,0,147.32,70.49Z"/><path class="cls-1" d="M41.64,55.23A41.19,41.19,0,0,1,46.5,49,45.28,45.28,0,0,0,27.77,64.65h9.07A52.72,52.72,0,0,1,41.64,55.23Z"/><path class="cls-1" d="M35.37,68.84H25.2A44.76,44.76,0,0,0,19.89,88H32.28A71.34,71.34,0,0,1,35.37,68.84Z"/><path class="cls-1" d="M83.16,49A41.8,41.8,0,0,1,88,55.23a52.07,52.07,0,0,1,4.8,9.42h9.07A45.32,45.32,0,0,0,83.16,49Z"/><path class="cls-1" d="M94.28,68.84a67.28,67.28,0,0,1,2.12,9h11.69a44.41,44.41,0,0,0-3.64-9Z"/><path class="cls-1" d="M167.6,76.15a3.75,3.75,0,1,0,3.74,3.75A3.75,3.75,0,0,0,167.6,76.15Z"/><path class="cls-1" d="M152.58,105.55a3.75,3.75,0,1,0-3.74-3.74A3.75,3.75,0,0,0,152.58,105.55Z"/><path class="cls-1" d="M66.92,47.43V64.65H86.73a44.41,44.41,0,0,0-2.77-5C79.3,52.48,73.32,48.2,66.92,47.43Z"/><path class="cls-1" d="M66.92,111.39H88.5a60.94,60.94,0,0,0,3.59-19.17H66.92Z"/><circle class="cls-1" cx="134.73" cy="90.12" r="3.74"/><path class="cls-1" d="M83.16,131.19a45.22,45.22,0,0,0,18.72-15.6H92.81A52.4,52.4,0,0,1,88,125,41.18,41.18,0,0,1,83.16,131.19Z"/><path class="cls-1" d="M86.73,115.59H66.92V132.8c6.4-.76,12.38-5,17-12.23A43.4,43.4,0,0,0,86.73,115.59Z"/><path class="cls-2" d="M22.23,115.59h-.05v-.08a49.62,49.62,0,0,1,37.88-74.8c-1.58-.15-3.17-.24-4.78-.24a49.64,49.64,0,0,0,0,99.28c1.57,0,3.13-.08,4.67-.22A49.72,49.72,0,0,1,22.23,115.59Z"/><path class="cls-3" d="M96.4,77.8a65.76,65.76,0,0,0-2.12-9h5.86q-1-2.15-2.25-4.19H92.81A52.07,52.07,0,0,0,88,55.23,41.8,41.8,0,0,0,83.16,49h0a49.28,49.28,0,0,0-23.11-8.34,49.62,49.62,0,0,0-37.88,74.8v.08h.05A49.72,49.72,0,0,0,60,139.53a49.34,49.34,0,0,0,23.24-8.37A41.27,41.27,0,0,0,88,125a52.4,52.4,0,0,0,4.8-9.42h5.07c.81-1.36,1.57-2.76,2.25-4.2H94.28a67.74,67.74,0,0,0,1.86-7.49H103c.4-1.37.74-2.77,1-4.19H96.8a73.92,73.92,0,0,0,.58-7.49h7.48c0-.7.06-1.4.06-2.11s0-1.39-.06-2.09H66.92V68.84H88.5a56.74,56.74,0,0,1,2.47,9c.27,1.37.49,2.77.66,4.19h12.61c-.23-1.42-.51-2.82-.87-4.19ZM46.5,49a41.19,41.19,0,0,0-4.86,6.19,52.72,52.72,0,0,0-4.8,9.42H27.77A45.28,45.28,0,0,1,46.5,49ZM25.2,68.84H35.37A71.34,71.34,0,0,0,32.28,88H19.89A44.76,44.76,0,0,1,25.2,68.84ZM19.89,92.22H32.28a71.2,71.2,0,0,0,3.09,19.17H25.2A44.68,44.68,0,0,1,19.89,92.22Zm7.88,23.37h9.07a53.06,53.06,0,0,0,4.8,9.42,41.19,41.19,0,0,0,4.86,6.19A45.28,45.28,0,0,1,27.77,115.59Zm35,17.21c-6.4-.76-12.38-5-17-12.23a43.4,43.4,0,0,1-2.77-5H62.73Zm0-21.41H41.15a61.23,61.23,0,0,1-3.59-19.17H62.73Zm0-23.37H37.56a61.34,61.34,0,0,1,3.59-19.18H62.73Zm0-23.37H42.92a44.41,44.41,0,0,1,2.77-5c4.66-7.18,10.64-11.46,17-12.23ZM84,120.57c-4.66,7.19-10.64,11.47-17,12.23V115.59H86.73A43.4,43.4,0,0,1,84,120.57Zm8.13-28.35a60.94,60.94,0,0,1-3.59,19.17H66.92V92.22ZM66.92,64.65V47.43c6.4.77,12.38,5,17,12.23a44.41,44.41,0,0,1,2.77,5Z"/><path class="cls-4" d="M96.4,77.8a65.76,65.76,0,0,0-2.12-9h5.86q-1-2.15-2.25-4.19H92.81A52.07,52.07,0,0,0,88,55.23,41.8,41.8,0,0,0,83.16,49h0a49.28,49.28,0,0,0-23.11-8.34,49.62,49.62,0,0,0-37.88,74.8v.08h.05A49.72,49.72,0,0,0,60,139.53a49.34,49.34,0,0,0,23.24-8.37A41.27,41.27,0,0,0,88,125a52.4,52.4,0,0,0,4.8-9.42h5.07c.81-1.36,1.57-2.76,2.25-4.2H94.28a67.74,67.74,0,0,0,1.86-7.49H103c.4-1.37.74-2.77,1-4.19H96.8a73.92,73.92,0,0,0,.58-7.49h7.48c0-.7.06-1.4.06-2.11s0-1.39-.06-2.09H66.92V68.84H88.5a56.74,56.74,0,0,1,2.47,9c.27,1.37.49,2.77.66,4.19h12.61c-.23-1.42-.51-2.82-.87-4.19ZM46.5,49a41.19,41.19,0,0,0-4.86,6.19,52.72,52.72,0,0,0-4.8,9.42H27.77A45.28,45.28,0,0,1,46.5,49ZM25.2,68.84H35.37A71.34,71.34,0,0,0,32.28,88H19.89A44.76,44.76,0,0,1,25.2,68.84ZM19.89,92.22H32.28a71.2,71.2,0,0,0,3.09,19.17H25.2A44.68,44.68,0,0,1,19.89,92.22Zm7.88,23.37h9.07a53.06,53.06,0,0,0,4.8,9.42,41.19,41.19,0,0,0,4.86,6.19A45.28,45.28,0,0,1,27.77,115.59Zm35,17.21c-6.4-.76-12.38-5-17-12.23a43.4,43.4,0,0,1-2.77-5H62.73Zm0-21.41H41.15a61.23,61.23,0,0,1-3.59-19.17H62.73Zm0-23.37H37.56a61.34,61.34,0,0,1,3.59-19.18H62.73Zm0-23.37H42.92a44.41,44.41,0,0,1,2.77-5c4.66-7.18,10.64-11.46,17-12.23ZM84,120.57c-4.66,7.19-10.64,11.47-17,12.23V115.59H86.73A43.4,43.4,0,0,1,84,120.57Zm8.13-28.35a60.94,60.94,0,0,1-3.59,19.17H66.92V92.22ZM66.92,64.65V47.43c6.4.77,12.38,5,17,12.23a44.41,44.41,0,0,1,2.77,5Z"/><path class="cls-1" d="M108.09,77.8a44.41,44.41,0,0,0-3.64-9h-4.31a49,49,0,0,1,3.23,9Z"/><path class="cls-1" d="M97.89,64.65h4a45.2,45.2,0,0,0-18.71-15.6A49.86,49.86,0,0,1,97.89,64.65Z"/><path class="cls-1" d="M143.37,125.46a3.75,3.75,0,1,0-3.75-3.74A3.75,3.75,0,0,0,143.37,125.46Z"/><path class="cls-1" d="M101.88,115.59h-4a49.78,49.78,0,0,1-14.69,15.57l0,0A45.22,45.22,0,0,0,101.88,115.59Z"/><circle class="cls-1" cx="134.73" cy="90.12" r="3.74"/><path class="cls-1" d="M152.58,105.55a3.75,3.75,0,1,0-3.74-3.74A3.75,3.75,0,0,0,152.58,105.55Z"/><path class="cls-1" d="M167.6,76.15a3.75,3.75,0,1,0,3.74,3.75A3.75,3.75,0,0,0,167.6,76.15Z"/><path class="cls-1" d="M147.32,70.49a3.75,3.75,0,1,0-3.74-3.74A3.75,3.75,0,0,0,147.32,70.49Z"/><path class="cls-4" d="M94.28,111.39h5.85A49.15,49.15,0,0,0,103,103.9H96.14A67.74,67.74,0,0,1,94.28,111.39Z"/><path class="cls-4" d="M96.8,99.71H104a48.65,48.65,0,0,0,.88-7.49H97.38A73.92,73.92,0,0,1,96.8,99.71Z"/><path class="cls-4" d="M91.63,82c-.17-1.42-.39-2.82-.66-4.19a56.74,56.74,0,0,0-2.47-9H66.92V88h37.94a48.11,48.11,0,0,0-.62-6H91.63Z"/><path class="cls-4" d="M88,55.23a52.07,52.07,0,0,1,4.8,9.42h5.08a49.86,49.86,0,0,0-14.72-15.6h0A41.8,41.8,0,0,1,88,55.23Z"/><path class="cls-4" d="M96.4,77.8h7a49,49,0,0,0-3.23-9H94.28A65.76,65.76,0,0,1,96.4,77.8Z"/><path class="cls-4" d="M97.88,115.59H92.81A52.4,52.4,0,0,1,88,125a41.27,41.27,0,0,1-4.82,6.15A49.78,49.78,0,0,0,97.88,115.59Z"/><path class="cls-4" d="M45.69,59.66a44.41,44.41,0,0,0-2.77,5H62.73V47.43C56.33,48.2,50.35,52.48,45.69,59.66Z"/><path class="cls-4" d="M66.92,132.8c6.4-.76,12.38-5,17-12.23a43.4,43.4,0,0,0,2.77-5H66.92Z"/><path class="cls-4" d="M37.56,88H62.73V68.84H41.15A61.34,61.34,0,0,0,37.56,88Z"/><path class="cls-4" d="M66.92,111.39H88.5a60.94,60.94,0,0,0,3.59-19.17H66.92Z"/><path class="cls-4" d="M41.15,111.39H62.73V92.22H37.56A61.23,61.23,0,0,0,41.15,111.39Z"/><path class="cls-4" d="M66.92,47.43V64.65H86.73a44.41,44.41,0,0,0-2.77-5C79.3,52.48,73.32,48.2,66.92,47.43Z"/><path class="cls-4" d="M32.28,92.22H19.89a44.68,44.68,0,0,0,5.31,19.17H35.37A71.2,71.2,0,0,1,32.28,92.22Z"/><path class="cls-4" d="M45.69,120.57c4.66,7.19,10.64,11.47,17,12.23V115.59H42.92A43.4,43.4,0,0,0,45.69,120.57Z"/><path class="cls-4" d="M41.64,55.23A41.19,41.19,0,0,1,46.5,49,45.28,45.28,0,0,0,27.77,64.65h9.07A52.72,52.72,0,0,1,41.64,55.23Z"/><path class="cls-4" d="M35.37,68.84H25.2A44.76,44.76,0,0,0,19.89,88H32.28A71.34,71.34,0,0,1,35.37,68.84Z"/><path class="cls-4" d="M36.84,115.59H27.77A45.28,45.28,0,0,0,46.5,131.2,41.19,41.19,0,0,1,41.64,125,53.06,53.06,0,0,1,36.84,115.59Z"/><path class="cls-5" d="M167.6,73.14a6.75,6.75,0,0,0-6.42,4.66H112.92a49.31,49.31,0,0,0-3.24-9H140.9a6.76,6.76,0,1,0,0-4.19H107.42A49.65,49.65,0,0,0,64.83,40.47c-1.61,0-3.2.09-4.77.24a49.28,49.28,0,0,1,23.11,8.34,45.2,45.2,0,0,1,18.71,15.6h-4q1.22,2,2.25,4.19h4.31a44.41,44.41,0,0,1,3.64,9h-4.72c.36,1.37.64,2.77.87,4.19h56.94a6.76,6.76,0,1,0,6.42-8.85ZM147.32,63a3.75,3.75,0,1,1-3.74,3.75A3.75,3.75,0,0,1,147.32,63ZM167.6,83.64a3.75,3.75,0,1,1,3.74-3.74A3.75,3.75,0,0,1,167.6,83.64Z"/><path class="cls-6" d="M167.6,73.14a6.75,6.75,0,0,0-6.42,4.66H112.92a49.31,49.31,0,0,0-3.24-9H140.9a6.76,6.76,0,1,0,0-4.19H107.42A49.65,49.65,0,0,0,64.83,40.47c-1.61,0-3.2.09-4.77.24a49.28,49.28,0,0,1,23.11,8.34,45.2,45.2,0,0,1,18.71,15.6h-4q1.22,2,2.25,4.19h4.31a44.41,44.41,0,0,1,3.64,9h-4.72c.36,1.37.64,2.77.87,4.19h56.94a6.76,6.76,0,1,0,6.42-8.85ZM147.32,63a3.75,3.75,0,1,1-3.74,3.75A3.75,3.75,0,0,1,147.32,63ZM167.6,83.64a3.75,3.75,0,1,1,3.74-3.74A3.75,3.75,0,0,1,167.6,83.64Z"/><path class="cls-5" d="M107.65,103.9h38.51a6.76,6.76,0,1,0,0-4.19H104c-.28,1.42-.62,2.82-1,4.19Zm44.93-5.84a3.75,3.75,0,1,1-3.74,3.75A3.75,3.75,0,0,1,152.58,98.06Z"/><path class="cls-6" d="M107.65,103.9h38.51a6.76,6.76,0,1,0,0-4.19H104c-.28,1.42-.62,2.82-1,4.19Zm44.93-5.84a3.75,3.75,0,1,1-3.74,3.75A3.75,3.75,0,0,1,152.58,98.06Z"/><path class="cls-5" d="M104.86,92.22H128.3a6.76,6.76,0,1,0,0-4.2H104.86c0,.7.06,1.39.06,2.09S104.89,91.52,104.86,92.22Zm29.87-5.84A3.74,3.74,0,1,1,131,90.12,3.75,3.75,0,0,1,134.73,86.38Z"/><path class="cls-6" d="M104.86,92.22H128.3a6.76,6.76,0,1,0,0-4.2H104.86c0,.7.06,1.39.06,2.09S104.89,91.52,104.86,92.22Zm29.87-5.84A3.74,3.74,0,1,1,131,90.12,3.75,3.75,0,0,1,134.73,86.38Z"/><path class="cls-5" d="M101.88,115.59a45.22,45.22,0,0,1-18.72,15.6l0,0A49.34,49.34,0,0,1,60,139.53c1.61.15,3.23.24,4.88.24a49.51,49.51,0,0,0,36-15.51h36.28a6.74,6.74,0,1,0-.3-4.2H104.4a48.6,48.6,0,0,0,3-4.47q1.23-2,2.26-4.2h-9.55c-.68,1.44-1.44,2.84-2.25,4.2ZM143.37,118a3.75,3.75,0,1,1-3.75,3.75A3.75,3.75,0,0,1,143.37,118Z"/><path class="cls-6" d="M101.88,115.59a45.22,45.22,0,0,1-18.72,15.6l0,0A49.34,49.34,0,0,1,60,139.53c1.61.15,3.23.24,4.88.24a49.51,49.51,0,0,0,36-15.51h36.28a6.74,6.74,0,1,0-.3-4.2H104.4a48.6,48.6,0,0,0,3-4.47q1.23-2,2.26-4.2h-9.55c-.68,1.44-1.44,2.84-2.25,4.2ZM143.37,118a3.75,3.75,0,1,1-3.75,3.75A3.75,3.75,0,0,1,143.37,118Z"/><path class="cls-6" d="M96.4,77.8a65.76,65.76,0,0,0-2.12-9h5.86q-1-2.15-2.25-4.19H92.81A52.07,52.07,0,0,0,88,55.23,41.8,41.8,0,0,0,83.16,49h0a49.28,49.28,0,0,0-23.11-8.34,49.62,49.62,0,0,0-37.88,74.8v.08h.05A49.72,49.72,0,0,0,60,139.53a49.34,49.34,0,0,0,23.24-8.37A41.27,41.27,0,0,0,88,125a52.4,52.4,0,0,0,4.8-9.42h5.07c.81-1.36,1.57-2.76,2.25-4.2H94.28a67.74,67.74,0,0,0,1.86-7.49H103c.4-1.37.74-2.77,1-4.19H96.8a73.92,73.92,0,0,0,.58-7.49h7.48c0-.7.06-1.4.06-2.11s0-1.39-.06-2.09H66.92V68.84H88.5a56.74,56.74,0,0,1,2.47,9c.27,1.37.49,2.77.66,4.19h12.61c-.23-1.42-.51-2.82-.87-4.19ZM46.5,49a41.19,41.19,0,0,0-4.86,6.19,52.72,52.72,0,0,0-4.8,9.42H27.77A45.28,45.28,0,0,1,46.5,49ZM25.2,68.84H35.37A71.34,71.34,0,0,0,32.28,88H19.89A44.76,44.76,0,0,1,25.2,68.84ZM19.89,92.22H32.28a71.2,71.2,0,0,0,3.09,19.17H25.2A44.68,44.68,0,0,1,19.89,92.22Zm7.88,23.37h9.07a53.06,53.06,0,0,0,4.8,9.42,41.19,41.19,0,0,0,4.86,6.19A45.28,45.28,0,0,1,27.77,115.59Zm35,17.21c-6.4-.76-12.38-5-17-12.23a43.4,43.4,0,0,1-2.77-5H62.73Zm0-21.41H41.15a61.23,61.23,0,0,1-3.59-19.17H62.73Zm0-23.37H37.56a61.34,61.34,0,0,1,3.59-19.18H62.73Zm0-23.37H42.92a44.41,44.41,0,0,1,2.77-5c4.66-7.18,10.64-11.46,17-12.23ZM84,120.57c-4.66,7.19-10.64,11.47-17,12.23V115.59H86.73A43.4,43.4,0,0,1,84,120.57Zm8.13-28.35a60.94,60.94,0,0,1-3.59,19.17H66.92V92.22ZM66.92,64.65V47.43c6.4.77,12.38,5,17,12.23a44.41,44.41,0,0,1,2.77,5Z"/></svg>