<svg id="Layer_1" data-name="Layer 1" xmlns="http://www.w3.org/2000/svg" viewBox="0 0 180 180"><defs><style>.cls-1,.cls-3,.cls-6{fill:none;}.cls-2,.cls-5{fill:#703694;}.cls-2{stroke:#fff;stroke-width:0.9px;}.cls-3,.cls-6{stroke:#703694;stroke-width:2.7px;}.cls-4{fill:#fff;}.cls-6{stroke-linejoin:round;}</style></defs><title>KPH LOGO</title><path class="cls-1" d="M40,113.21H62.19V93.53H36.35A62.93,62.93,0,0,0,40,113.21Z"/><path class="cls-1" d="M44.7,122.64c4.78,7.37,10.92,11.76,17.49,12.55V117.52H41.85A45.88,45.88,0,0,0,44.7,122.64Z"/><path class="cls-1" d="M36.35,89.22H62.19V69.54H40A62.93,62.93,0,0,0,36.35,89.22Z"/><path class="cls-1" d="M44.7,60.12a44.86,44.86,0,0,0-2.85,5.11H62.19V47.56C55.62,48.35,49.48,52.74,44.7,60.12Z"/><path class="cls-1" d="M145,127.65a3.84,3.84,0,1,0-3.84-3.84A3.84,3.84,0,0,0,145,127.65Z"/><path class="cls-1" d="M35.62,117.52H26.3a46.53,46.53,0,0,0,19.23,16,42.19,42.19,0,0,1-5-6.35A54.17,54.17,0,0,1,35.62,117.52Z"/><path class="cls-1" d="M30.93,93.53H18.22a45.83,45.83,0,0,0,5.45,19.68H34.1A73.27,73.27,0,0,1,30.93,93.53Z"/><path class="cls-1" d="M154.42,107.21a3.84,3.84,0,1,0-3.84-3.84A3.84,3.84,0,0,0,154.42,107.21Z"/><path class="cls-1" d="M110.38,69.54a50.57,50.57,0,0,1,3.33,9.19h4.47V69.54Z"/><path class="cls-1" d="M40.54,55.56a42.19,42.19,0,0,1,5-6.35,46.53,46.53,0,0,0-19.23,16h9.32A54.17,54.17,0,0,1,40.54,55.56Z"/><path class="cls-1" d="M34.1,69.54H23.67a45.83,45.83,0,0,0-5.45,19.68H30.93A73.27,73.27,0,0,1,34.1,69.54Z"/><path class="cls-1" d="M66.49,47.56V65.23H86.83A44.86,44.86,0,0,0,84,60.12C79.2,52.74,73.06,48.35,66.49,47.56Z"/><path class="cls-1" d="M94.58,69.54a70.39,70.39,0,0,1,2.17,9.19h12A45.31,45.31,0,0,0,105,69.54Z"/><path class="cls-1" d="M83.16,49.21a42.79,42.79,0,0,1,5,6.35,54.87,54.87,0,0,1,4.93,9.67h9.31A46.56,46.56,0,0,0,83.16,49.21Z"/><path class="cls-1" d="M136.09,95.22a3.85,3.85,0,1,0-3.84-3.84A3.85,3.85,0,0,0,136.09,95.22Z"/><path class="cls-1" d="M86.83,117.52H66.49v17.67C73.06,134.4,79.2,130,84,122.64A45.88,45.88,0,0,0,86.83,117.52Z"/><path class="cls-1" d="M83.16,133.54a46.56,46.56,0,0,0,19.22-16H93.07a54.87,54.87,0,0,1-4.93,9.67A42.79,42.79,0,0,1,83.16,133.54Z"/><path class="cls-1" d="M66.49,113.21H88.64a62.93,62.93,0,0,0,3.69-19.68H66.49Z"/><path class="cls-1" d="M40,113.21H62.19V93.53H36.35A62.93,62.93,0,0,0,40,113.21Z"/><path class="cls-1" d="M44.7,122.64c4.78,7.37,10.92,11.76,17.49,12.55V117.52H41.85A45.88,45.88,0,0,0,44.7,122.64Z"/><path class="cls-1" d="M36.35,89.22H62.19V69.54H40A62.93,62.93,0,0,0,36.35,89.22Z"/><path class="cls-1" d="M44.7,60.12a44.86,44.86,0,0,0-2.85,5.11H62.19V47.56C55.62,48.35,49.48,52.74,44.7,60.12Z"/><path class="cls-1" d="M35.62,117.52H26.3a46.53,46.53,0,0,0,19.23,16,42.19,42.19,0,0,1-5-6.35A54.17,54.17,0,0,1,35.62,117.52Z"/><path class="cls-1" d="M30.93,93.53H18.22a45.83,45.83,0,0,0,5.45,19.68H34.1A73.27,73.27,0,0,1,30.93,93.53Z"/><path class="cls-1" d="M145,127.65a3.84,3.84,0,1,0-3.84-3.84A3.84,3.84,0,0,0,145,127.65Z"/><path class="cls-1" d="M149,71.23a3.85,3.85,0,1,0-3.84-3.85A3.85,3.85,0,0,0,149,71.23Z"/><path class="cls-1" d="M40.54,55.56a42.19,42.19,0,0,1,5-6.35,46.53,46.53,0,0,0-19.23,16h9.32A54.17,54.17,0,0,1,40.54,55.56Z"/><path class="cls-1" d="M34.1,69.54H23.67a45.83,45.83,0,0,0-5.45,19.68H30.93A73.27,73.27,0,0,1,34.1,69.54Z"/><path class="cls-1" d="M83.16,49.21a42.79,42.79,0,0,1,5,6.35,54.87,54.87,0,0,1,4.93,9.67h9.31A46.56,46.56,0,0,0,83.16,49.21Z"/><path class="cls-1" d="M94.58,69.54a70.39,70.39,0,0,1,2.17,9.19h12A45.31,45.31,0,0,0,105,69.54Z"/><path class="cls-1" d="M169.83,77a3.84,3.84,0,1,0,3.85,3.84A3.85,3.85,0,0,0,169.83,77Z"/><path class="cls-1" d="M154.42,107.21a3.84,3.84,0,1,0-3.84-3.84A3.84,3.84,0,0,0,154.42,107.21Z"/><path class="cls-1" d="M66.49,47.56V65.23H86.83A44.86,44.86,0,0,0,84,60.12C79.2,52.74,73.06,48.35,66.49,47.56Z"/><path class="cls-1" d="M66.49,113.21H88.64a62.93,62.93,0,0,0,3.69-19.68H66.49Z"/><circle class="cls-1" cx="136.09" cy="91.38" r="3.84"/><path class="cls-1" d="M83.16,133.54a46.56,46.56,0,0,0,19.22-16H93.07a54.87,54.87,0,0,1-4.93,9.67A42.79,42.79,0,0,1,83.16,133.54Z"/><path class="cls-1" d="M86.83,117.52H66.49v17.67C73.06,134.4,79.2,130,84,122.64A45.88,45.88,0,0,0,86.83,117.52Z"/><path class="cls-2" d="M20.62,117.52h-.05v-.08A50.92,50.92,0,0,1,59.45,40.66c-1.62-.16-3.25-.24-4.91-.24a51,51,0,0,0,0,101.9c1.62,0,3.22-.08,4.8-.23A51,51,0,0,1,20.62,117.52Z"/><path class="cls-3" d="M96.75,78.73a70.39,70.39,0,0,0-2.17-9.19h6c-.7-1.48-1.47-2.91-2.3-4.31H93.07a54.87,54.87,0,0,0-4.93-9.67,42.79,42.79,0,0,0-5-6.35h0a50.56,50.56,0,0,0-23.72-8.56,50.92,50.92,0,0,0-38.88,76.78v.08h.05a51,51,0,0,0,38.72,24.57,50.68,50.68,0,0,0,23.85-8.58,42.36,42.36,0,0,0,5-6.32,54.87,54.87,0,0,0,4.93-9.67h5.2a48.07,48.07,0,0,0,2.31-4.31h-6a67,67,0,0,0,1.9-7.69h7c.41-1.41.77-2.84,1-4.3H97.16a74.77,74.77,0,0,0,.59-7.69h7.69c0-.72,0-1.44,0-2.16s0-1.44,0-2.15H66.49V69.54H88.64a58.77,58.77,0,0,1,2.54,9.19c.27,1.41.5,2.85.68,4.31H104.8c-.24-1.46-.53-2.9-.89-4.31ZM45.53,49.21a42.19,42.19,0,0,0-5,6.35,54.17,54.17,0,0,0-4.92,9.67H26.3A46.53,46.53,0,0,1,45.53,49.21ZM23.67,69.54H34.1a73.27,73.27,0,0,0-3.17,19.68H18.22A45.83,45.83,0,0,1,23.67,69.54Zm-5.45,24H30.93a73.27,73.27,0,0,0,3.17,19.68H23.67A45.83,45.83,0,0,1,18.22,93.53Zm8.08,24h9.32a54.17,54.17,0,0,0,4.92,9.67,42.19,42.19,0,0,0,5,6.35A46.53,46.53,0,0,1,26.3,117.52Zm35.89,17.67c-6.57-.79-12.71-5.18-17.49-12.55a45.88,45.88,0,0,1-2.85-5.12H62.19Zm0-22H40a62.93,62.93,0,0,1-3.69-19.68H62.19Zm0-24H36.35A62.93,62.93,0,0,1,40,69.54H62.19Zm0-24H41.85a44.86,44.86,0,0,1,2.85-5.11c4.78-7.38,10.92-11.77,17.49-12.56ZM84,122.64C79.2,130,73.06,134.4,66.49,135.19V117.52H86.83A45.88,45.88,0,0,1,84,122.64Zm8.35-29.11a62.65,62.65,0,0,1-3.69,19.68H66.49V93.53ZM66.49,65.23V47.56c6.57.79,12.71,5.18,17.49,12.56a44.86,44.86,0,0,1,2.85,5.11Z"/><path class="cls-4" d="M96.75,78.73a70.39,70.39,0,0,0-2.17-9.19h6c-.7-1.48-1.47-2.91-2.3-4.31H93.07a54.87,54.87,0,0,0-4.93-9.67,42.79,42.79,0,0,0-5-6.35h0a50.56,50.56,0,0,0-23.72-8.56,50.92,50.92,0,0,0-38.88,76.78v.08h.05a51,51,0,0,0,38.72,24.57,50.68,50.68,0,0,0,23.85-8.58,42.36,42.36,0,0,0,5-6.32,54.87,54.87,0,0,0,4.93-9.67h5.2a48.07,48.07,0,0,0,2.31-4.31h-6a67,67,0,0,0,1.9-7.69h7c.41-1.41.77-2.84,1-4.3H97.16a74.77,74.77,0,0,0,.59-7.69h7.69c0-.72,0-1.44,0-2.16s0-1.44,0-2.15H66.49V69.54H88.64a58.77,58.77,0,0,1,2.54,9.19c.27,1.41.5,2.85.68,4.31H104.8c-.24-1.46-.53-2.9-.89-4.31ZM45.53,49.21a42.19,42.19,0,0,0-5,6.35,54.17,54.17,0,0,0-4.92,9.67H26.3A46.53,46.53,0,0,1,45.53,49.21ZM23.67,69.54H34.1a73.27,73.27,0,0,0-3.17,19.68H18.22A45.83,45.83,0,0,1,23.67,69.54Zm-5.45,24H30.93a73.27,73.27,0,0,0,3.17,19.68H23.67A45.83,45.83,0,0,1,18.22,93.53Zm8.08,24h9.32a54.17,54.17,0,0,0,4.92,9.67,42.19,42.19,0,0,0,5,6.35A46.53,46.53,0,0,1,26.3,117.52Zm35.89,17.67c-6.57-.79-12.71-5.18-17.49-12.55a45.88,45.88,0,0,1-2.85-5.12H62.19Zm0-22H40a62.93,62.93,0,0,1-3.69-19.68H62.19Zm0-24H36.35A62.93,62.93,0,0,1,40,69.54H62.19Zm0-24H41.85a44.86,44.86,0,0,1,2.85-5.11c4.78-7.38,10.92-11.77,17.49-12.56ZM84,122.64C79.2,130,73.06,134.4,66.49,135.19V117.52H86.83A45.88,45.88,0,0,1,84,122.64Zm8.35-29.11a62.65,62.65,0,0,1-3.69,19.68H66.49V93.53ZM66.49,65.23V47.56c6.57.79,12.71,5.18,17.49,12.56a44.86,44.86,0,0,1,2.85,5.11Z"/><path class="cls-1" d="M108.75,78.73A45.31,45.31,0,0,0,105,69.54h-4.43a50.57,50.57,0,0,1,3.33,9.19Z"/><path class="cls-1" d="M98.28,65.23h4.1a46.45,46.45,0,0,0-19.21-16A51.24,51.24,0,0,1,98.28,65.23Z"/><path class="cls-1" d="M145,127.65a3.84,3.84,0,1,0-3.84-3.84A3.84,3.84,0,0,0,145,127.65Z"/><path class="cls-1" d="M102.38,117.52H98.27a51.3,51.3,0,0,1-15.08,16l0,0A46.56,46.56,0,0,0,102.38,117.52Z"/><circle class="cls-1" cx="136.09" cy="91.38" r="3.84"/><path class="cls-1" d="M154.42,107.21a3.84,3.84,0,1,0-3.84-3.84A3.84,3.84,0,0,0,154.42,107.21Z"/><path class="cls-1" d="M169.83,77a3.84,3.84,0,1,0,3.85,3.84A3.85,3.85,0,0,0,169.83,77Z"/><path class="cls-1" d="M149,71.23a3.85,3.85,0,1,0-3.84-3.85A3.85,3.85,0,0,0,149,71.23Z"/><path class="cls-5" d="M94.58,113.21h6a49.66,49.66,0,0,0,2.9-7.69h-7A67,67,0,0,1,94.58,113.21Z"/><path class="cls-5" d="M97.16,101.22h7.37a51.13,51.13,0,0,0,.91-7.69H97.75A74.77,74.77,0,0,1,97.16,101.22Z"/><path class="cls-5" d="M91.86,83c-.18-1.46-.41-2.9-.68-4.31a58.77,58.77,0,0,0-2.54-9.19H66.49V89.22h39A50.13,50.13,0,0,0,104.8,83H91.86Z"/><path class="cls-5" d="M88.14,55.56a54.87,54.87,0,0,1,4.93,9.67h5.21a51.24,51.24,0,0,0-15.11-16h0A42.79,42.79,0,0,1,88.14,55.56Z"/><path class="cls-5" d="M96.75,78.73h7.16a50.57,50.57,0,0,0-3.33-9.19h-6A70.39,70.39,0,0,1,96.75,78.73Z"/><path class="cls-5" d="M98.27,117.52h-5.2a54.87,54.87,0,0,1-4.93,9.67,42.36,42.36,0,0,1-5,6.32A51.3,51.3,0,0,0,98.27,117.52Z"/><path class="cls-5" d="M44.7,60.12a44.86,44.86,0,0,0-2.85,5.11H62.19V47.56C55.62,48.35,49.48,52.74,44.7,60.12Z"/><path class="cls-5" d="M66.49,135.19C73.06,134.4,79.2,130,84,122.64a45.88,45.88,0,0,0,2.85-5.12H66.49Z"/><path class="cls-5" d="M36.35,89.22H62.19V69.54H40A62.93,62.93,0,0,0,36.35,89.22Z"/><path class="cls-5" d="M66.49,113.21H88.64a62.65,62.65,0,0,0,3.69-19.68H66.49Z"/><path class="cls-5" d="M40,113.21H62.19V93.53H36.35A62.93,62.93,0,0,0,40,113.21Z"/><path class="cls-5" d="M66.49,47.56V65.23H86.83A44.86,44.86,0,0,0,84,60.12C79.2,52.74,73.06,48.35,66.49,47.56Z"/><path class="cls-5" d="M30.93,93.53H18.22a45.83,45.83,0,0,0,5.45,19.68H34.1A73.27,73.27,0,0,1,30.93,93.53Z"/><path class="cls-5" d="M44.7,122.64c4.78,7.37,10.92,11.76,17.49,12.55V117.52H41.85A45.88,45.88,0,0,0,44.7,122.64Z"/><path class="cls-5" d="M40.54,55.56a42.19,42.19,0,0,1,5-6.35,46.53,46.53,0,0,0-19.23,16h9.32A54.17,54.17,0,0,1,40.54,55.56Z"/><path class="cls-5" d="M34.1,69.54H23.67a45.83,45.83,0,0,0-5.45,19.68H30.93A73.27,73.27,0,0,1,34.1,69.54Z"/><path class="cls-5" d="M35.62,117.52H26.3a46.53,46.53,0,0,0,19.23,16,42.19,42.19,0,0,1-5-6.35A54.17,54.17,0,0,1,35.62,117.52Z"/><path class="cls-6" d="M169.83,73.94a7,7,0,0,0-6.59,4.79H113.71a50.57,50.57,0,0,0-3.33-9.19h32.05a6.94,6.94,0,1,0,0-4.31H108.07A51,51,0,0,0,64.34,40.42q-2.48,0-4.89.24a50.56,50.56,0,0,1,23.72,8.56,46.45,46.45,0,0,1,19.21,16h-4.1c.83,1.4,1.6,2.83,2.3,4.31H105a45.31,45.31,0,0,1,3.74,9.19h-4.84c.36,1.41.65,2.85.89,4.31h58.44a6.94,6.94,0,1,0,6.59-9.1ZM149,63.54a3.85,3.85,0,1,1-3.84,3.84A3.85,3.85,0,0,1,149,63.54Zm20.81,21.18a3.84,3.84,0,1,1,3.85-3.84A3.85,3.85,0,0,1,169.83,84.72Z"/><path class="cls-4" d="M169.83,73.94a7,7,0,0,0-6.59,4.79H113.71a50.57,50.57,0,0,0-3.33-9.19h32.05a6.94,6.94,0,1,0,0-4.31H108.07A51,51,0,0,0,64.34,40.42q-2.48,0-4.89.24a50.56,50.56,0,0,1,23.72,8.56,46.45,46.45,0,0,1,19.21,16h-4.1c.83,1.4,1.6,2.83,2.3,4.31H105a45.31,45.31,0,0,1,3.74,9.19h-4.84c.36,1.41.65,2.85.89,4.31h58.44a6.94,6.94,0,1,0,6.59-9.1ZM149,63.54a3.85,3.85,0,1,1-3.84,3.84A3.85,3.85,0,0,1,149,63.54Zm20.81,21.18a3.84,3.84,0,1,1,3.85-3.84A3.85,3.85,0,0,1,169.83,84.72Z"/><path class="cls-6" d="M108.29,105.52h39.53a6.94,6.94,0,1,0,0-4.3H104.53c-.28,1.46-.64,2.89-1,4.3Zm46.13-6a3.84,3.84,0,1,1-3.84,3.84A3.84,3.84,0,0,1,154.42,99.53Z"/><path class="cls-4" d="M108.29,105.52h39.53a6.94,6.94,0,1,0,0-4.3H104.53c-.28,1.46-.64,2.89-1,4.3Zm46.13-6a3.84,3.84,0,1,1-3.84,3.84A3.84,3.84,0,0,1,154.42,99.53Z"/><path class="cls-6" d="M105.44,93.53H129.5a6.94,6.94,0,1,0,0-4.31H105.44c0,.71,0,1.43,0,2.15S105.47,92.81,105.44,93.53Zm30.65-6a3.85,3.85,0,1,1-3.84,3.85A3.85,3.85,0,0,1,136.09,87.53Z"/><path class="cls-4" d="M105.44,93.53H129.5a6.94,6.94,0,1,0,0-4.31H105.44c0,.71,0,1.43,0,2.15S105.47,92.81,105.44,93.53Zm30.65-6a3.85,3.85,0,1,1-3.84,3.85A3.85,3.85,0,0,1,136.09,87.53Z"/><path class="cls-6" d="M102.38,117.52a46.56,46.56,0,0,1-19.22,16l0,0a50.68,50.68,0,0,1-23.85,8.58c1.64.16,3.31.24,5,.24a50.79,50.79,0,0,0,37-15.91h37.23a6.94,6.94,0,1,0-.3-4.31H105a53.55,53.55,0,0,0,3.11-4.59c.83-1.39,1.61-2.83,2.31-4.31h-9.8a48.07,48.07,0,0,1-2.31,4.31ZM145,120a3.84,3.84,0,1,1-3.84,3.84A3.84,3.84,0,0,1,145,120Z"/><path class="cls-4" d="M102.38,117.52a46.56,46.56,0,0,1-19.22,16l0,0a50.68,50.68,0,0,1-23.85,8.58c1.64.16,3.31.24,5,.24a50.79,50.79,0,0,0,37-15.91h37.23a6.94,6.94,0,1,0-.3-4.31H105a53.55,53.55,0,0,0,3.11-4.59c.83-1.39,1.61-2.83,2.31-4.31h-9.8a48.07,48.07,0,0,1-2.31,4.31ZM145,120a3.84,3.84,0,1,1-3.84,3.84A3.84,3.84,0,0,1,145,120Z"/><path class="cls-4" d="M96.75,78.73a70.39,70.39,0,0,0-2.17-9.19h6c-.7-1.48-1.47-2.91-2.3-4.31H93.07a54.87,54.87,0,0,0-4.93-9.67,42.79,42.79,0,0,0-5-6.35h0a50.56,50.56,0,0,0-23.72-8.56,50.92,50.92,0,0,0-38.88,76.78v.08h.05a51,51,0,0,0,38.72,24.57,50.68,50.68,0,0,0,23.85-8.58,42.36,42.36,0,0,0,5-6.32,54.87,54.87,0,0,0,4.93-9.67h5.2a48.07,48.07,0,0,0,2.31-4.31h-6a67,67,0,0,0,1.9-7.69h7c.41-1.41.77-2.84,1-4.3H97.16a74.77,74.77,0,0,0,.59-7.69h7.69c0-.72,0-1.44,0-2.16s0-1.44,0-2.15H66.49V69.54H88.64a58.77,58.77,0,0,1,2.54,9.19c.27,1.41.5,2.85.68,4.31H104.8c-.24-1.46-.53-2.9-.89-4.31ZM45.53,49.21a42.19,42.19,0,0,0-5,6.35,54.17,54.17,0,0,0-4.92,9.67H26.3A46.53,46.53,0,0,1,45.53,49.21ZM23.67,69.54H34.1a73.27,73.27,0,0,0-3.17,19.68H18.22A45.83,45.83,0,0,1,23.67,69.54Zm-5.45,24H30.93a73.27,73.27,0,0,0,3.17,19.68H23.67A45.83,45.83,0,0,1,18.22,93.53Zm8.08,24h9.32a54.17,54.17,0,0,0,4.92,9.67,42.19,42.19,0,0,0,5,6.35A46.53,46.53,0,0,1,26.3,117.52Zm35.89,17.67c-6.57-.79-12.71-5.18-17.49-12.55a45.88,45.88,0,0,1-2.85-5.12H62.19Zm0-22H40a62.93,62.93,0,0,1-3.69-19.68H62.19Zm0-24H36.35A62.93,62.93,0,0,1,40,69.54H62.19Zm0-24H41.85a44.86,44.86,0,0,1,2.85-5.11c4.78-7.38,10.92-11.77,17.49-12.56ZM84,122.64C79.2,130,73.06,134.4,66.49,135.19V117.52H86.83A45.88,45.88,0,0,1,84,122.64Zm8.35-29.11a62.65,62.65,0,0,1-3.69,19.68H66.49V93.53ZM66.49,65.23V47.56c6.57.79,12.71,5.18,17.49,12.56a44.86,44.86,0,0,1,2.85,5.11Z"/></svg>