<svg id="Layer_1" data-name="Layer 1" xmlns="http://www.w3.org/2000/svg" viewBox="0 0 180 180"><defs><style>.cls-1{fill:none;stroke:#fff;stroke-width:0.97px;}.cls-2{fill:#703694;}.cls-3{fill:#fff;}</style></defs><title>KPH LOGO</title><path class="cls-1" d="M75.66,105.94H66.82L58.87,94.1l-1.43,2v9.84H50.13V76.81h7.31V89.74l9.32-12.93h8.47L64.84,90.33Z"/><path class="cls-1" d="M100.44,86a11.64,11.64,0,0,1-.64,3.87A8.16,8.16,0,0,1,97.94,93a13,13,0,0,1-1.63,1.41,9.86,9.86,0,0,1-2,1.09,12.54,12.54,0,0,1-2.34.71,14.29,14.29,0,0,1-2.82.25H85.34v9.53H78V76.81h11.3a17.94,17.94,0,0,1,4.36.46A10.51,10.51,0,0,1,97,78.73a7.27,7.27,0,0,1,2.54,2.92A9.78,9.78,0,0,1,100.44,86Zm-7.51.17a3.76,3.76,0,0,0-.58-2.12,3.18,3.18,0,0,0-1.41-1.22,6,6,0,0,0-2-.52c-.63,0-1.49-.07-2.57-.07h-1V91h.51c.69,0,1.34,0,2,0a10.45,10.45,0,0,0,1.6-.13,5.45,5.45,0,0,0,1.24-.38,3.08,3.08,0,0,0,1-.64,3.79,3.79,0,0,0,1-1.51A7,7,0,0,0,92.93,86.18Z"/><path class="cls-1" d="M129,105.94h-7.32V93h-10v12.91h-7.31V76.81h7.31V87.47h10V76.81H129Z"/><path class="cls-1" d="M149.49,105.94H133.8v-5.09H138V81.9H133.8V76.81h15.69V81.9H145.3v18.95h4.19Z"/><path class="cls-1" d="M163.34,106.47a24,24,0,0,1-5.88-.65,29.45,29.45,0,0,1-4.7-1.6V97.29h.66a16.45,16.45,0,0,0,4.83,2.86,14.59,14.59,0,0,0,5.13,1A13.32,13.32,0,0,0,165,101a5.6,5.6,0,0,0,1.66-.43,3.74,3.74,0,0,0,1.29-.93,2.29,2.29,0,0,0,.52-1.57,2.14,2.14,0,0,0-.86-1.78,5.38,5.38,0,0,0-2-1q-1.49-.39-3.18-.75a24.58,24.58,0,0,1-3.16-.86,9.8,9.8,0,0,1-4.85-3.2,8.36,8.36,0,0,1-1.47-5,7.82,7.82,0,0,1,3.47-6.62A14.22,14.22,0,0,1,165,76.28a25.87,25.87,0,0,1,5.18.53,22.41,22.41,0,0,1,4.6,1.43v6.65h-.64a14.51,14.51,0,0,0-4-2.35,12.55,12.55,0,0,0-4.81-1,9.89,9.89,0,0,0-1.72.14,6.52,6.52,0,0,0-1.6.53,3.33,3.33,0,0,0-1.19.93,2.14,2.14,0,0,0-.49,1.38,2.18,2.18,0,0,0,.79,1.77,8,8,0,0,0,3.06,1.18l2.83.65A26.17,26.17,0,0,1,170,89,9.91,9.91,0,0,1,174.5,92,7.55,7.55,0,0,1,176,96.84a8.4,8.4,0,0,1-3.42,7C170.29,105.59,167.21,106.47,163.34,106.47Z"/><rect class="cls-1" x="5.4" y="76.81" width="44.73" height="29.13"/><circle class="cls-1" cx="22.61" cy="91.37" r="14.26"/><path class="cls-1" d="M18.55,97.49h6.2V92H17.52A17.45,17.45,0,0,0,18.55,97.49Z"/><path class="cls-1" d="M19.85,100.13a7.07,7.07,0,0,0,4.9,3.51v-5H19.06A12.38,12.38,0,0,0,19.85,100.13Z"/><path class="cls-1" d="M17.52,90.77h7.23V85.26h-6.2A17.45,17.45,0,0,0,17.52,90.77Z"/><path class="cls-1" d="M19.85,82.63a12.24,12.24,0,0,0-.79,1.43h5.69v-5A7.06,7.06,0,0,0,19.85,82.63Z"/><path class="cls-1" d="M47.92,101.53a1.08,1.08,0,1,0-1.08-1.08A1.07,1.07,0,0,0,47.92,101.53Z"/><path class="cls-1" d="M17.31,98.69H14.7a13.13,13.13,0,0,0,5.38,4.49,12.2,12.2,0,0,1-1.39-1.78A14.67,14.67,0,0,1,17.31,98.69Z"/><path class="cls-1" d="M16,92H12.44A12.75,12.75,0,0,0,14,97.49h2.92A20.49,20.49,0,0,1,16,92Z"/><path class="cls-1" d="M50.56,95.81a1.08,1.08,0,1,0-1.07-1.08A1.08,1.08,0,0,0,50.56,95.81Z"/><path class="cls-1" d="M18.69,81.35a12.2,12.2,0,0,1,1.39-1.78,13.13,13.13,0,0,0-5.38,4.49h2.61A15,15,0,0,1,18.69,81.35Z"/><path class="cls-1" d="M16.89,85.26H14a12.75,12.75,0,0,0-1.53,5.51H16A20.49,20.49,0,0,1,16.89,85.26Z"/><path class="cls-1" d="M26,79.11v5h5.7a12.28,12.28,0,0,0-.8-1.43A7.06,7.06,0,0,0,26,79.11Z"/><path class="cls-1" d="M33.81,85.26a19.41,19.41,0,0,1,.61,2.58h3.36a13.26,13.26,0,0,0-1-2.58Z"/><path class="cls-1" d="M30.62,79.57A12.2,12.2,0,0,1,32,81.35a15,15,0,0,1,1.38,2.71H36A13,13,0,0,0,30.62,79.57Z"/><path class="cls-1" d="M45.43,92.45a1.08,1.08,0,1,0-1.07-1.07A1.07,1.07,0,0,0,45.43,92.45Z"/><path class="cls-1" d="M31.65,98.69H26v5a7.07,7.07,0,0,0,4.9-3.51A12.43,12.43,0,0,0,31.65,98.69Z"/><path class="cls-1" d="M30.62,103.18A13,13,0,0,0,36,98.69H33.39A14.67,14.67,0,0,1,32,101.4,12.2,12.2,0,0,1,30.62,103.18Z"/><path class="cls-1" d="M26,97.49h6.2a17.45,17.45,0,0,0,1-5.51H26Z"/><path class="cls-1" d="M18.55,97.49h6.2V92H17.52A17.45,17.45,0,0,0,18.55,97.49Z"/><path class="cls-1" d="M19.85,100.13a7.07,7.07,0,0,0,4.9,3.51v-5H19.06A12.38,12.38,0,0,0,19.85,100.13Z"/><path class="cls-1" d="M17.52,90.77h7.23V85.26h-6.2A17.45,17.45,0,0,0,17.52,90.77Z"/><path class="cls-1" d="M19.85,82.63a12.24,12.24,0,0,0-.79,1.43h5.69v-5A7.06,7.06,0,0,0,19.85,82.63Z"/><path class="cls-1" d="M17.31,98.69H14.7a13.13,13.13,0,0,0,5.38,4.49,12.2,12.2,0,0,1-1.39-1.78A14.67,14.67,0,0,1,17.31,98.69Z"/><path class="cls-1" d="M16,92H12.44A12.75,12.75,0,0,0,14,97.49h2.92A20.49,20.49,0,0,1,16,92Z"/><path class="cls-1" d="M47.92,101.53a1.08,1.08,0,1,0-1.08-1.08A1.07,1.07,0,0,0,47.92,101.53Z"/><path class="cls-1" d="M49.05,85.74A1.08,1.08,0,1,0,48,84.66,1.08,1.08,0,0,0,49.05,85.74Z"/><path class="cls-1" d="M18.69,81.35a12.2,12.2,0,0,1,1.39-1.78,13.13,13.13,0,0,0-5.38,4.49h2.61A15,15,0,0,1,18.69,81.35Z"/><path class="cls-1" d="M16.89,85.26H14a12.75,12.75,0,0,0-1.53,5.51H16A20.49,20.49,0,0,1,16.89,85.26Z"/><path class="cls-1" d="M30.62,79.57A12.2,12.2,0,0,1,32,81.35a15,15,0,0,1,1.38,2.71H36A13,13,0,0,0,30.62,79.57Z"/><path class="cls-1" d="M33.81,85.26a19.41,19.41,0,0,1,.61,2.58h3.36a13.26,13.26,0,0,0-1-2.58Z"/><path class="cls-1" d="M54.88,87.36a1.08,1.08,0,1,0,0,2.15,1.08,1.08,0,0,0,0-2.15Z"/><path class="cls-1" d="M50.56,95.81a1.08,1.08,0,1,0-1.07-1.08A1.08,1.08,0,0,0,50.56,95.81Z"/><path class="cls-1" d="M26,79.11v5h5.7a12.28,12.28,0,0,0-.8-1.43A7.06,7.06,0,0,0,26,79.11Z"/><path class="cls-1" d="M26,97.49h6.2a17.45,17.45,0,0,0,1-5.51H26Z"/><circle class="cls-1" cx="45.43" cy="91.38" r="1.08"/><path class="cls-1" d="M30.62,103.18A13,13,0,0,0,36,98.69H33.39A14.67,14.67,0,0,1,32,101.4,12.2,12.2,0,0,1,30.62,103.18Z"/><path class="cls-1" d="M31.65,98.69H26v5a7.07,7.07,0,0,0,4.9-3.51A12.43,12.43,0,0,0,31.65,98.69Z"/><path class="cls-1" d="M54.88,86.5A2,2,0,0,0,53,87.84H39.17a14.15,14.15,0,0,0-.93-2.58h9a1.94,1.94,0,1,0,0-1.2H37.59A14.26,14.26,0,0,0,13.1,98.67v0h0a14.25,14.25,0,0,0,22.59,2.49H46.12A1.93,1.93,0,1,0,46,100H36.72a14.54,14.54,0,0,0,.87-1.29c.23-.39.45-.79.65-1.2H33.81a19.31,19.31,0,0,0,.54-2.15H48.72a1.95,1.95,0,1,0,0-1.21H34.54A21.52,21.52,0,0,0,34.7,92h8.89a1.95,1.95,0,1,0,0-1.21H26V85.26h6.2a16.31,16.31,0,0,1,.71,2.58c.08.39.14.79.19,1.2H53a1.94,1.94,0,1,0,1.85-2.54Zm-5.83-2.91A1.08,1.08,0,1,1,48,84.66,1.07,1.07,0,0,1,49.05,83.59Zm-29-4a12.2,12.2,0,0,0-1.39,1.78,15,15,0,0,0-1.38,2.71H14.7A13.13,13.13,0,0,1,20.08,79.57ZM14,85.26h2.92A20.49,20.49,0,0,0,16,90.77H12.44A12.75,12.75,0,0,1,14,85.26ZM12.44,92H16a20.49,20.49,0,0,0,.89,5.51H14A12.75,12.75,0,0,1,12.44,92Zm2.26,6.71h2.61a14.67,14.67,0,0,0,1.38,2.71,12.2,12.2,0,0,0,1.39,1.78A13.13,13.13,0,0,1,14.7,98.69Zm10.05,5a7.07,7.07,0,0,1-4.9-3.51,12.38,12.38,0,0,1-.79-1.44h5.69Zm0-6.15h-6.2a17.45,17.45,0,0,1-1-5.51h7.23Zm0-6.72H17.52a17.45,17.45,0,0,1,1-5.51h6.2Zm0-6.71H19.06a12.24,12.24,0,0,1,.79-1.43,7.06,7.06,0,0,1,4.9-3.52ZM47.92,99.38a1.08,1.08,0,1,1-1.08,1.07A1.07,1.07,0,0,1,47.92,99.38Zm2.64-5.72a1.08,1.08,0,1,1-1.07,1.07A1.07,1.07,0,0,1,50.56,93.66ZM45.43,90.3a1.08,1.08,0,1,1-1.07,1.08A1.08,1.08,0,0,1,45.43,90.3ZM26,103.64v-5h5.7a12.43,12.43,0,0,1-.8,1.44A7.07,7.07,0,0,1,26,103.64Zm7.44-5H36a13,13,0,0,1-5.38,4.49A12.2,12.2,0,0,0,32,101.4,14.67,14.67,0,0,0,33.39,98.69ZM33.18,92a17.45,17.45,0,0,1-1,5.51H26V92ZM26,84.06v-5a7.06,7.06,0,0,1,4.9,3.52,12.28,12.28,0,0,1,.8,1.43ZM32,81.35a12.2,12.2,0,0,0-1.39-1.78A13,13,0,0,1,36,84.06H33.39A15,15,0,0,0,32,81.35Zm2.41,6.49a19.41,19.41,0,0,0-.61-2.58h2.93a13.26,13.26,0,0,1,1,2.58Zm20.46,1.67A1.08,1.08,0,1,1,56,88.44,1.08,1.08,0,0,1,54.88,89.51Z"/><path class="cls-2" d="M75.66,105.94H66.82L58.87,94.1l-1.43,2v9.84H50.13V76.81h7.31V89.74l9.32-12.93h8.47L64.84,90.33Z"/><path class="cls-2" d="M100.44,86a11.64,11.64,0,0,1-.64,3.87A8.16,8.16,0,0,1,97.94,93a13,13,0,0,1-1.63,1.41,9.86,9.86,0,0,1-2,1.09,12.54,12.54,0,0,1-2.34.71,14.29,14.29,0,0,1-2.82.25H85.34v9.53H78V76.81h11.3a17.94,17.94,0,0,1,4.36.46A10.51,10.51,0,0,1,97,78.73a7.27,7.27,0,0,1,2.54,2.92A9.78,9.78,0,0,1,100.44,86Zm-7.51.17a3.76,3.76,0,0,0-.58-2.12,3.18,3.18,0,0,0-1.41-1.22,6,6,0,0,0-2-.52c-.63,0-1.49-.07-2.57-.07h-1V91h.51c.69,0,1.34,0,2,0a10.45,10.45,0,0,0,1.6-.13,5.45,5.45,0,0,0,1.24-.38,3.08,3.08,0,0,0,1-.64,3.79,3.79,0,0,0,1-1.51A7,7,0,0,0,92.93,86.18Z"/><path class="cls-2" d="M129,105.94h-7.32V93h-10v12.91h-7.31V76.81h7.31V87.47h10V76.81H129Z"/><path class="cls-2" d="M149.49,105.94H133.8v-5.09H138V81.9H133.8V76.81h15.69V81.9H145.3v18.95h4.19Z"/><path class="cls-2" d="M163.34,106.47a24,24,0,0,1-5.88-.65,29.45,29.45,0,0,1-4.7-1.6V97.29h.66a16.45,16.45,0,0,0,4.83,2.86,14.59,14.59,0,0,0,5.13,1A13.32,13.32,0,0,0,165,101a5.6,5.6,0,0,0,1.66-.43,3.74,3.74,0,0,0,1.29-.93,2.29,2.29,0,0,0,.52-1.57,2.14,2.14,0,0,0-.86-1.78,5.38,5.38,0,0,0-2-1q-1.49-.39-3.18-.75a24.58,24.58,0,0,1-3.16-.86,9.8,9.8,0,0,1-4.85-3.2,8.36,8.36,0,0,1-1.47-5,7.82,7.82,0,0,1,3.47-6.62A14.22,14.22,0,0,1,165,76.28a25.87,25.87,0,0,1,5.18.53,22.41,22.41,0,0,1,4.6,1.43v6.65h-.64a14.51,14.51,0,0,0-4-2.35,12.55,12.55,0,0,0-4.81-1,9.89,9.89,0,0,0-1.72.14,6.52,6.52,0,0,0-1.6.53,3.33,3.33,0,0,0-1.19.93,2.14,2.14,0,0,0-.49,1.38,2.18,2.18,0,0,0,.79,1.77,8,8,0,0,0,3.06,1.18l2.83.65A26.17,26.17,0,0,1,170,89,9.91,9.91,0,0,1,174.5,92,7.55,7.55,0,0,1,176,96.84a8.4,8.4,0,0,1-3.42,7C170.29,105.59,167.21,106.47,163.34,106.47Z"/><rect class="cls-2" x="5.4" y="76.81" width="44.73" height="29.13"/><circle class="cls-2" cx="22.61" cy="91.37" r="14.26"/><path class="cls-3" d="M54.88,86.5A2,2,0,0,0,53,87.84H39.17a14.15,14.15,0,0,0-.93-2.58h9a1.94,1.94,0,1,0,0-1.2H37.59A14.26,14.26,0,0,0,13.1,98.67v0h0a14.25,14.25,0,0,0,22.59,2.49H46.12A1.93,1.93,0,1,0,46,100H36.72a14.54,14.54,0,0,0,.87-1.29c.23-.39.45-.79.65-1.2H33.81a19.31,19.31,0,0,0,.54-2.15H48.72a1.95,1.95,0,1,0,0-1.21H34.54A21.52,21.52,0,0,0,34.7,92h8.89a1.95,1.95,0,1,0,0-1.21H26V85.26h6.2a16.31,16.31,0,0,1,.71,2.58c.08.39.14.79.19,1.2H53a1.94,1.94,0,1,0,1.85-2.54Zm-5.83-2.91A1.08,1.08,0,1,1,48,84.66,1.07,1.07,0,0,1,49.05,83.59Zm-29-4a12.2,12.2,0,0,0-1.39,1.78,15,15,0,0,0-1.38,2.71H14.7A13.13,13.13,0,0,1,20.08,79.57ZM14,85.26h2.92A20.49,20.49,0,0,0,16,90.77H12.44A12.75,12.75,0,0,1,14,85.26ZM12.44,92H16a20.49,20.49,0,0,0,.89,5.51H14A12.75,12.75,0,0,1,12.44,92Zm2.26,6.71h2.61a14.67,14.67,0,0,0,1.38,2.71,12.2,12.2,0,0,0,1.39,1.78A13.13,13.13,0,0,1,14.7,98.69Zm10.05,5a7.07,7.07,0,0,1-4.9-3.51,12.38,12.38,0,0,1-.79-1.44h5.69Zm0-6.15h-6.2a17.45,17.45,0,0,1-1-5.51h7.23Zm0-6.72H17.52a17.45,17.45,0,0,1,1-5.51h6.2Zm0-6.71H19.06a12.24,12.24,0,0,1,.79-1.43,7.06,7.06,0,0,1,4.9-3.52ZM47.92,99.38a1.08,1.08,0,1,1-1.08,1.07A1.07,1.07,0,0,1,47.92,99.38Zm2.64-5.72a1.08,1.08,0,1,1-1.07,1.07A1.07,1.07,0,0,1,50.56,93.66ZM45.43,90.3a1.08,1.08,0,1,1-1.07,1.08A1.08,1.08,0,0,1,45.43,90.3ZM26,103.64v-5h5.7a12.43,12.43,0,0,1-.8,1.44A7.07,7.07,0,0,1,26,103.64Zm7.44-5H36a13,13,0,0,1-5.38,4.49A12.2,12.2,0,0,0,32,101.4,14.67,14.67,0,0,0,33.39,98.69ZM33.18,92a17.45,17.45,0,0,1-1,5.51H26V92ZM26,84.06v-5a7.06,7.06,0,0,1,4.9,3.52,12.28,12.28,0,0,1,.8,1.43ZM32,81.35a12.2,12.2,0,0,0-1.39-1.78A13,13,0,0,1,36,84.06H33.39A15,15,0,0,0,32,81.35Zm2.41,6.49a19.41,19.41,0,0,0-.61-2.58h2.93a13.26,13.26,0,0,1,1,2.58Zm20.46,1.67A1.08,1.08,0,1,1,56,88.44,1.08,1.08,0,0,1,54.88,89.51Z"/></svg>